<?xml version="1.0" encoding="utf-8"?>
<!-- Generator: Adobe Illustrator 16.0.0, SVG Export Plug-In . SVG Version: 6.00 Build 0)  -->
<!DOCTYPE svg PUBLIC "-//W3C//DTD SVG 1.1//EN" "http://www.w3.org/Graphics/SVG/1.1/DTD/svg11.dtd">
<svg version="1.1" id="Layer_1" xmlns="http://www.w3.org/2000/svg" xmlns:xlink="http://www.w3.org/1999/xlink" x="0px" y="0px"
	 width="708px" height="75px" viewBox="0 0 708 75" enable-background="new 0 0 708 75" xml:space="preserve">
<defs>
	<filter id="Adobe_OpacityMaskFilter" filterUnits="userSpaceOnUse" x="134.261" y="26.085" width="152.329" height="37.171">
		<feColorMatrix  type="matrix" values="1 0 0 0 0  0 1 0 0 0  0 0 1 0 0  0 0 0 1 0"/>
	</filter>
</defs>
<mask maskUnits="userSpaceOnUse" x="134.261" y="26.085" width="152.329" height="37.171" id="SVGID_1_">
	<g filter="url(#Adobe_OpacityMaskFilter)">
		
			<linearGradient id="SVGID_2_" gradientUnits="userSpaceOnUse" x1="-197.5747" y1="44.25" x2="61.6489" y2="44.25" gradientTransform="matrix(0.6012 0 0 1 252.9391 0)">
			<stop  offset="0" style="stop-color:#FFFFFF;stop-opacity:0"/>
			<stop  offset="0.8653" style="stop-color:#FFFFFF"/>
		</linearGradient>
		<rect x="134.167" y="14.5" fill="url(#SVGID_2_)" width="155.833" height="59.5"/>
	</g>
</mask>
<g mask="url(#SVGID_1_)">
	<path fill="#800000000080000000" d="M136.94,26.128h5.76c0.671,0,1.307,0.024,1.908,0.072c0.6,0.048,1.091,0.216,1.476,0.504
		c0.335,0.241,0.636,0.565,0.9,0.972c0.263,0.408,0.516,0.804,0.756,1.188c0.383,0.625,0.792,1.236,1.224,1.836
		c0.432,0.601,0.864,1.213,1.296,1.836c0.239,0.385,0.515,0.817,0.828,1.296c0.312,0.48,0.708,0.792,1.188,0.936
		c0.191,0.048,0.372,0.036,0.54-0.036c0.168-0.072,0.299-0.155,0.396-0.252c0.335-0.24,0.6-0.528,0.792-0.864
		c0.191-0.335,0.407-0.671,0.648-1.008c0.384-0.624,0.792-1.235,1.224-1.836c0.432-0.6,0.864-1.212,1.296-1.836
		c0.384-0.671,0.756-1.248,1.116-1.728c0.36-0.479,0.972-0.816,1.836-1.008c0.335-0.096,0.695-0.131,1.08-0.108
		c0.384,0.025,0.767,0.036,1.152,0.036h4.464c0.479,0,0.947,0.036,1.404,0.108c0.456,0.072,0.731,0.3,0.828,0.684
		c0.095,0.241,0.083,0.468-0.036,0.684c-0.121,0.216-0.229,0.396-0.324,0.54c-0.241,0.48-0.529,0.925-0.864,1.332
		c-0.336,0.409-0.648,0.853-0.936,1.332c-1.105,1.537-2.185,3.073-3.24,4.608c-1.056,1.537-2.136,3.072-3.24,4.608
		c-0.288,0.385-0.576,0.768-0.864,1.152c-0.288,0.385-0.552,0.817-0.792,1.296c-0.097,0.144-0.18,0.336-0.252,0.576
		c-0.072,0.241-0.084,0.48-0.036,0.72c0.144,0.529,0.347,0.972,0.612,1.332c0.263,0.36,0.515,0.732,0.756,1.116
		c0.288,0.385,0.576,0.781,0.864,1.188c0.288,0.408,0.551,0.804,0.792,1.188c1.055,1.488,2.088,2.977,3.096,4.464
		c1.008,1.488,2.04,3,3.096,4.536c0.384,0.576,0.792,1.152,1.224,1.728c0.432,0.576,0.839,1.177,1.224,1.8
		c0.096,0.144,0.216,0.349,0.36,0.612c0.144,0.264,0.144,0.54,0,0.828c-0.097,0.336-0.36,0.529-0.792,0.576
		c-0.432,0.048-0.889,0.072-1.368,0.072h-6.624c-0.241-0.047-0.48-0.083-0.72-0.108c-0.241-0.023-0.48-0.083-0.72-0.18
		c-0.529-0.384-0.961-0.864-1.296-1.44c-0.336-0.576-0.696-1.127-1.08-1.656c-0.529-0.72-1.033-1.451-1.512-2.196
		c-0.48-0.744-0.96-1.476-1.44-2.196c-0.288-0.432-0.637-0.972-1.044-1.62c-0.408-0.648-0.876-1.044-1.404-1.188
		c-0.336-0.096-0.625-0.036-0.864,0.18c-0.241,0.216-0.408,0.421-0.504,0.612c-0.385,0.528-0.756,1.068-1.116,1.62
		c-0.36,0.553-0.732,1.116-1.116,1.692l-2.808,4.104c-0.241,0.385-0.493,0.769-0.756,1.152c-0.265,0.385-0.612,0.696-1.044,0.936
		c-0.529,0.241-1.285,0.349-2.268,0.324c-0.984-0.023-1.861-0.036-2.628-0.036h-2.376c-0.192,0-0.396,0.012-0.612,0.036
		c-0.216,0.025-0.396,0.013-0.54-0.036c-0.192-0.047-0.372-0.06-0.54-0.036c-0.168,0.025-0.324-0.011-0.468-0.108
		c-0.144-0.096-0.252-0.18-0.324-0.252c-0.072-0.072-0.156-0.155-0.252-0.252c-0.048-0.479,0.024-0.875,0.216-1.188
		c0.191-0.312,0.383-0.612,0.576-0.9c0.384-0.527,0.756-1.055,1.116-1.584c0.36-0.527,0.731-1.055,1.116-1.584
		c0.96-1.392,1.919-2.808,2.88-4.248c0.959-1.44,1.919-2.88,2.88-4.32c0.335-0.432,0.648-0.864,0.936-1.296
		c0.288-0.432,0.576-0.864,0.864-1.296c0.24-0.335,0.468-0.671,0.684-1.008c0.216-0.335,0.371-0.744,0.468-1.224
		c0.095-0.239,0.095-0.456,0-0.648c-0.097-0.191-0.169-0.335-0.216-0.432c-0.241-0.527-0.516-0.996-0.828-1.404
		c-0.313-0.407-0.612-0.828-0.9-1.26c-1.104-1.68-2.221-3.3-3.348-4.86c-1.128-1.559-2.245-3.179-3.348-4.86
		c-0.241-0.384-0.504-0.767-0.792-1.152c-0.288-0.384-0.552-0.792-0.792-1.224c-0.097-0.144-0.205-0.312-0.324-0.504
		c-0.12-0.191-0.133-0.407-0.036-0.648c0.095-0.24,0.216-0.396,0.36-0.468c0.144-0.072,0.335-0.155,0.576-0.252
		C136.652,26.2,136.843,26.176,136.94,26.128z"/>
	<path fill="#800000000080000000" d="M175.603,26.128h5.76c0.671,0,1.307,0.024,1.908,0.072c0.6,0.048,1.091,0.216,1.476,0.504
		c0.335,0.241,0.636,0.565,0.9,0.972c0.263,0.408,0.516,0.804,0.756,1.188c0.383,0.625,0.792,1.236,1.224,1.836
		c0.432,0.601,0.864,1.213,1.296,1.836c0.239,0.385,0.515,0.817,0.828,1.296c0.312,0.48,0.708,0.792,1.188,0.936
		c0.191,0.048,0.372,0.036,0.54-0.036c0.168-0.072,0.299-0.155,0.396-0.252c0.335-0.24,0.6-0.528,0.792-0.864
		c0.191-0.335,0.407-0.671,0.648-1.008c0.384-0.624,0.792-1.235,1.224-1.836c0.432-0.6,0.864-1.212,1.296-1.836
		c0.384-0.671,0.756-1.248,1.116-1.728c0.36-0.479,0.972-0.816,1.836-1.008c0.335-0.096,0.695-0.131,1.08-0.108
		c0.384,0.025,0.767,0.036,1.152,0.036h4.464c0.479,0,0.947,0.036,1.404,0.108c0.456,0.072,0.731,0.3,0.828,0.684
		c0.095,0.241,0.083,0.468-0.036,0.684c-0.121,0.216-0.229,0.396-0.324,0.54c-0.241,0.48-0.529,0.925-0.864,1.332
		c-0.336,0.409-0.648,0.853-0.936,1.332c-1.105,1.537-2.185,3.073-3.24,4.608c-1.056,1.537-2.136,3.072-3.24,4.608
		c-0.288,0.385-0.576,0.768-0.864,1.152c-0.288,0.385-0.552,0.817-0.792,1.296c-0.097,0.144-0.18,0.336-0.252,0.576
		c-0.072,0.241-0.084,0.48-0.036,0.72c0.144,0.529,0.347,0.972,0.612,1.332c0.263,0.36,0.515,0.732,0.756,1.116
		c0.288,0.385,0.576,0.781,0.864,1.188c0.288,0.408,0.551,0.804,0.792,1.188c1.055,1.488,2.088,2.977,3.096,4.464
		c1.008,1.488,2.04,3,3.096,4.536c0.384,0.576,0.792,1.152,1.224,1.728c0.432,0.576,0.839,1.177,1.224,1.8
		c0.096,0.144,0.216,0.349,0.36,0.612c0.144,0.264,0.144,0.54,0,0.828c-0.097,0.336-0.36,0.529-0.792,0.576
		c-0.432,0.048-0.889,0.072-1.368,0.072h-6.624c-0.241-0.047-0.48-0.083-0.72-0.108c-0.241-0.023-0.48-0.083-0.72-0.18
		c-0.529-0.384-0.961-0.864-1.296-1.44c-0.336-0.576-0.696-1.127-1.08-1.656c-0.529-0.72-1.033-1.451-1.512-2.196
		c-0.48-0.744-0.96-1.476-1.44-2.196c-0.288-0.432-0.637-0.972-1.044-1.62c-0.408-0.648-0.876-1.044-1.404-1.188
		c-0.336-0.096-0.625-0.036-0.864,0.18c-0.241,0.216-0.408,0.421-0.504,0.612c-0.385,0.528-0.756,1.068-1.116,1.62
		c-0.36,0.553-0.732,1.116-1.116,1.692l-2.808,4.104c-0.241,0.385-0.493,0.769-0.756,1.152c-0.265,0.385-0.612,0.696-1.044,0.936
		c-0.529,0.241-1.285,0.349-2.268,0.324c-0.984-0.023-1.861-0.036-2.628-0.036h-2.376c-0.192,0-0.396,0.012-0.612,0.036
		c-0.216,0.025-0.396,0.013-0.54-0.036c-0.192-0.047-0.372-0.06-0.54-0.036c-0.168,0.025-0.324-0.011-0.468-0.108
		c-0.144-0.096-0.252-0.18-0.324-0.252c-0.072-0.072-0.156-0.155-0.252-0.252c-0.048-0.479,0.024-0.875,0.216-1.188
		c0.191-0.312,0.383-0.612,0.576-0.9c0.384-0.527,0.756-1.055,1.116-1.584c0.36-0.527,0.731-1.055,1.116-1.584
		c0.96-1.392,1.919-2.808,2.88-4.248c0.959-1.44,1.919-2.88,2.88-4.32c0.335-0.432,0.648-0.864,0.936-1.296
		c0.288-0.432,0.576-0.864,0.864-1.296c0.24-0.335,0.468-0.671,0.684-1.008c0.216-0.335,0.371-0.744,0.468-1.224
		c0.095-0.239,0.095-0.456,0-0.648c-0.097-0.191-0.169-0.335-0.216-0.432c-0.241-0.527-0.516-0.996-0.828-1.404
		c-0.313-0.407-0.612-0.828-0.9-1.26c-1.104-1.68-2.221-3.3-3.348-4.86c-1.128-1.559-2.245-3.179-3.348-4.86
		c-0.241-0.384-0.504-0.767-0.792-1.152c-0.288-0.384-0.552-0.792-0.792-1.224c-0.097-0.144-0.205-0.312-0.324-0.504
		c-0.12-0.191-0.133-0.407-0.036-0.648c0.095-0.24,0.216-0.396,0.36-0.468c0.144-0.072,0.335-0.155,0.576-0.252
		C175.315,26.2,175.506,26.176,175.603,26.128z"/>
	<path fill="#800000000080000000" d="M214.266,26.128h5.76c0.671,0,1.307,0.024,1.908,0.072c0.6,0.048,1.091,0.216,1.476,0.504
		c0.335,0.241,0.636,0.565,0.9,0.972c0.263,0.408,0.516,0.804,0.756,1.188c0.383,0.625,0.792,1.236,1.224,1.836
		c0.432,0.601,0.864,1.213,1.296,1.836c0.239,0.385,0.515,0.817,0.828,1.296c0.312,0.48,0.708,0.792,1.188,0.936
		c0.191,0.048,0.372,0.036,0.54-0.036c0.168-0.072,0.299-0.155,0.396-0.252c0.335-0.24,0.6-0.528,0.792-0.864
		c0.191-0.335,0.407-0.671,0.648-1.008c0.384-0.624,0.792-1.235,1.224-1.836c0.432-0.6,0.864-1.212,1.296-1.836
		c0.384-0.671,0.756-1.248,1.116-1.728c0.36-0.479,0.972-0.816,1.836-1.008c0.335-0.096,0.695-0.131,1.08-0.108
		c0.384,0.025,0.767,0.036,1.152,0.036h4.464c0.479,0,0.947,0.036,1.404,0.108c0.456,0.072,0.731,0.3,0.828,0.684
		c0.095,0.241,0.083,0.468-0.036,0.684c-0.121,0.216-0.229,0.396-0.324,0.54c-0.241,0.48-0.529,0.925-0.864,1.332
		c-0.336,0.409-0.648,0.853-0.936,1.332c-1.105,1.537-2.185,3.073-3.24,4.608c-1.056,1.537-2.136,3.072-3.24,4.608
		c-0.288,0.385-0.576,0.768-0.864,1.152c-0.288,0.385-0.552,0.817-0.792,1.296c-0.097,0.144-0.18,0.336-0.252,0.576
		c-0.072,0.241-0.084,0.48-0.036,0.72c0.144,0.529,0.347,0.972,0.612,1.332c0.263,0.36,0.515,0.732,0.756,1.116
		c0.288,0.385,0.576,0.781,0.864,1.188c0.288,0.408,0.551,0.804,0.792,1.188c1.055,1.488,2.088,2.977,3.096,4.464
		c1.008,1.488,2.04,3,3.096,4.536c0.384,0.576,0.792,1.152,1.224,1.728c0.432,0.576,0.839,1.177,1.224,1.8
		c0.096,0.144,0.216,0.349,0.36,0.612c0.144,0.264,0.144,0.54,0,0.828c-0.097,0.336-0.36,0.529-0.792,0.576
		c-0.432,0.048-0.889,0.072-1.368,0.072h-6.624c-0.241-0.047-0.48-0.083-0.72-0.108c-0.241-0.023-0.48-0.083-0.72-0.18
		c-0.529-0.384-0.961-0.864-1.296-1.44c-0.336-0.576-0.696-1.127-1.08-1.656c-0.529-0.72-1.033-1.451-1.512-2.196
		c-0.48-0.744-0.96-1.476-1.44-2.196c-0.288-0.432-0.637-0.972-1.044-1.62c-0.408-0.648-0.876-1.044-1.404-1.188
		c-0.336-0.096-0.625-0.036-0.864,0.18c-0.241,0.216-0.408,0.421-0.504,0.612c-0.385,0.528-0.756,1.068-1.116,1.62
		c-0.36,0.553-0.732,1.116-1.116,1.692l-2.808,4.104c-0.241,0.385-0.493,0.769-0.756,1.152c-0.265,0.385-0.612,0.696-1.044,0.936
		c-0.529,0.241-1.285,0.349-2.268,0.324c-0.984-0.023-1.861-0.036-2.628-0.036h-2.376c-0.192,0-0.396,0.012-0.612,0.036
		c-0.216,0.025-0.396,0.013-0.54-0.036c-0.192-0.047-0.372-0.06-0.54-0.036c-0.168,0.025-0.324-0.011-0.468-0.108
		c-0.144-0.096-0.252-0.18-0.324-0.252c-0.072-0.072-0.156-0.155-0.252-0.252c-0.048-0.479,0.024-0.875,0.216-1.188
		c0.191-0.312,0.383-0.612,0.576-0.9c0.384-0.527,0.756-1.055,1.116-1.584c0.36-0.527,0.731-1.055,1.116-1.584
		c0.96-1.392,1.919-2.808,2.88-4.248c0.959-1.44,1.919-2.88,2.88-4.32c0.335-0.432,0.648-0.864,0.936-1.296
		c0.288-0.432,0.576-0.864,0.864-1.296c0.24-0.335,0.468-0.671,0.684-1.008c0.216-0.335,0.371-0.744,0.468-1.224
		c0.095-0.239,0.095-0.456,0-0.648c-0.097-0.191-0.169-0.335-0.216-0.432c-0.241-0.527-0.516-0.996-0.828-1.404
		c-0.313-0.407-0.612-0.828-0.9-1.26c-1.104-1.68-2.221-3.3-3.348-4.86c-1.128-1.559-2.245-3.179-3.348-4.86
		c-0.241-0.384-0.504-0.767-0.792-1.152c-0.288-0.384-0.552-0.792-0.792-1.224c-0.097-0.144-0.205-0.312-0.324-0.504
		c-0.12-0.191-0.133-0.407-0.036-0.648c0.095-0.24,0.216-0.396,0.36-0.468c0.144-0.072,0.335-0.155,0.576-0.252
		C213.978,26.2,214.169,26.176,214.266,26.128z"/>
	<path fill="#800000000080000000" d="M252.929,26.128h5.76c0.671,0,1.307,0.024,1.908,0.072c0.6,0.048,1.091,0.216,1.476,0.504
		c0.335,0.241,0.636,0.565,0.9,0.972c0.263,0.408,0.516,0.804,0.756,1.188c0.383,0.625,0.792,1.236,1.224,1.836
		c0.432,0.601,0.864,1.213,1.296,1.836c0.239,0.385,0.515,0.817,0.828,1.296c0.312,0.48,0.708,0.792,1.188,0.936
		c0.191,0.048,0.372,0.036,0.54-0.036c0.168-0.072,0.299-0.155,0.396-0.252c0.335-0.24,0.6-0.528,0.792-0.864
		c0.191-0.335,0.407-0.671,0.648-1.008c0.384-0.624,0.792-1.235,1.224-1.836c0.432-0.6,0.864-1.212,1.296-1.836
		c0.384-0.671,0.756-1.248,1.116-1.728c0.36-0.479,0.972-0.816,1.836-1.008c0.335-0.096,0.695-0.131,1.08-0.108
		c0.384,0.025,0.767,0.036,1.152,0.036h4.464c0.479,0,0.947,0.036,1.404,0.108c0.456,0.072,0.731,0.3,0.828,0.684
		c0.095,0.241,0.083,0.468-0.036,0.684c-0.121,0.216-0.229,0.396-0.324,0.54c-0.241,0.48-0.529,0.925-0.864,1.332
		c-0.336,0.409-0.648,0.853-0.936,1.332c-1.105,1.537-2.185,3.073-3.24,4.608c-1.056,1.537-2.136,3.072-3.24,4.608
		c-0.288,0.385-0.576,0.768-0.864,1.152c-0.288,0.385-0.552,0.817-0.792,1.296c-0.097,0.144-0.18,0.336-0.252,0.576
		c-0.072,0.241-0.084,0.48-0.036,0.72c0.144,0.529,0.347,0.972,0.612,1.332c0.263,0.36,0.515,0.732,0.756,1.116
		c0.288,0.385,0.576,0.781,0.864,1.188c0.288,0.408,0.551,0.804,0.792,1.188c1.055,1.488,2.088,2.977,3.096,4.464
		c1.008,1.488,2.04,3,3.096,4.536c0.384,0.576,0.792,1.152,1.224,1.728c0.432,0.576,0.839,1.177,1.224,1.8
		c0.096,0.144,0.216,0.349,0.36,0.612c0.144,0.264,0.144,0.54,0,0.828c-0.097,0.336-0.36,0.529-0.792,0.576
		c-0.432,0.048-0.889,0.072-1.368,0.072h-6.624c-0.241-0.047-0.48-0.083-0.72-0.108c-0.241-0.023-0.48-0.083-0.72-0.18
		c-0.529-0.384-0.961-0.864-1.296-1.44c-0.336-0.576-0.696-1.127-1.08-1.656c-0.529-0.72-1.033-1.451-1.512-2.196
		c-0.48-0.744-0.96-1.476-1.44-2.196c-0.288-0.432-0.637-0.972-1.044-1.62c-0.408-0.648-0.876-1.044-1.404-1.188
		c-0.336-0.096-0.625-0.036-0.864,0.18c-0.241,0.216-0.408,0.421-0.504,0.612c-0.385,0.528-0.756,1.068-1.116,1.62
		c-0.36,0.553-0.732,1.116-1.116,1.692l-2.808,4.104c-0.241,0.385-0.493,0.769-0.756,1.152c-0.265,0.385-0.612,0.696-1.044,0.936
		c-0.529,0.241-1.285,0.349-2.268,0.324c-0.984-0.023-1.861-0.036-2.628-0.036h-2.376c-0.192,0-0.396,0.012-0.612,0.036
		c-0.216,0.025-0.396,0.013-0.54-0.036c-0.192-0.047-0.372-0.06-0.54-0.036c-0.168,0.025-0.324-0.011-0.468-0.108
		c-0.144-0.096-0.252-0.18-0.324-0.252c-0.072-0.072-0.156-0.155-0.252-0.252c-0.048-0.479,0.024-0.875,0.216-1.188
		c0.191-0.312,0.383-0.612,0.576-0.9c0.384-0.527,0.756-1.055,1.116-1.584c0.36-0.527,0.731-1.055,1.116-1.584
		c0.96-1.392,1.919-2.808,2.88-4.248c0.959-1.44,1.919-2.88,2.88-4.32c0.335-0.432,0.648-0.864,0.936-1.296
		c0.288-0.432,0.576-0.864,0.864-1.296c0.24-0.335,0.468-0.671,0.684-1.008c0.216-0.335,0.371-0.744,0.468-1.224
		c0.095-0.239,0.095-0.456,0-0.648c-0.097-0.191-0.169-0.335-0.216-0.432c-0.241-0.527-0.516-0.996-0.828-1.404
		c-0.313-0.407-0.612-0.828-0.9-1.26c-1.104-1.68-2.221-3.3-3.348-4.86c-1.128-1.559-2.245-3.179-3.348-4.86
		c-0.241-0.384-0.504-0.767-0.792-1.152c-0.288-0.384-0.552-0.792-0.792-1.224c-0.097-0.144-0.205-0.312-0.324-0.504
		c-0.12-0.191-0.133-0.407-0.036-0.648c0.095-0.24,0.216-0.396,0.36-0.468c0.144-0.072,0.335-0.155,0.576-0.252
		C252.641,26.2,252.833,26.176,252.929,26.128z"/>
</g>
<g>
	<path fill="#CA2027" stroke="#000000" stroke-miterlimit="10" d="M316.752,25.192c1.775-0.047,3.336,0.144,4.68,0.576
		c1.343,0.432,2.52,1.033,3.528,1.8c0.384,0.288,0.731,0.625,1.044,1.008c0.312,0.385,0.659,0.769,1.044,1.152
		c0.096,0.097,0.252,0.228,0.468,0.396c0.216,0.168,0.443,0.205,0.684,0.108c0.527-0.144,1.031-0.492,1.512-1.044
		c0.479-0.551,0.936-0.972,1.368-1.26c0.671-0.527,1.392-0.972,2.16-1.332c0.767-0.36,1.631-0.708,2.592-1.044
		c0.384-0.096,0.852-0.18,1.404-0.252c0.551-0.072,1.127-0.119,1.728-0.144c0.6-0.023,1.176-0.011,1.728,0.036
		c0.551,0.048,1.044,0.12,1.476,0.216c0.24,0.048,0.456,0.072,0.648,0.072c0.191,0,0.407,0.048,0.648,0.144
		c0.672,0.192,1.32,0.384,1.944,0.576c0.623,0.192,1.199,0.457,1.728,0.792c2.016,1.249,3.528,3.072,4.536,5.472
		c0.191,0.432,0.335,0.876,0.432,1.332c0.096,0.457,0.191,0.9,0.288,1.332c0.047,0.336,0.083,0.648,0.108,0.936
		c0.023,0.288,0.06,0.576,0.108,0.864v0.72c0.047,0.288,0.06,0.624,0.036,1.008c-0.025,0.385-0.036,0.745-0.036,1.08v4.176v14.04
		c0,0.385,0.011,0.828,0.036,1.332c0.023,0.504,0.023,0.984,0,1.44c-0.025,0.457-0.084,0.889-0.18,1.296
		c-0.097,0.408-0.241,0.684-0.432,0.828c-0.288,0.241-0.661,0.373-1.116,0.396c-0.457,0.025-0.948,0.036-1.476,0.036h-3.816
		c-0.673,0-1.272-0.047-1.8-0.144c-0.529-0.096-0.889-0.36-1.08-0.792c-0.144-0.335-0.216-0.708-0.216-1.116
		c0-0.408,0-0.804,0-1.188v-4.032v-9.72v-3.024c0-0.24,0.011-0.504,0.036-0.792c0.024-0.288-0.012-0.551-0.108-0.792v-0.576
		c0-0.288,0-0.576,0-0.864s-0.025-0.576-0.072-0.864c-0.048-0.191-0.072-0.396-0.072-0.612c0-0.216-0.025-0.419-0.072-0.612
		c-0.192-0.72-0.396-1.355-0.612-1.908c-0.216-0.551-0.54-1.044-0.972-1.476c-0.673-0.671-1.489-1.152-2.448-1.44
		c-0.192-0.047-0.36-0.06-0.504-0.036c-0.144,0.024-0.313-0.011-0.504-0.108c-0.192-0.047-0.421-0.083-0.684-0.108
		c-0.265-0.023-0.517-0.011-0.756,0.036c-0.288,0.097-0.576,0.144-0.864,0.144s-0.576,0.048-0.864,0.144
		c-1.393,0.48-2.401,1.2-3.024,2.16c-0.816,1.105-1.308,2.484-1.476,4.14c-0.169,1.656-0.252,3.468-0.252,5.436v9.504v5.328
		c0,0.48,0,0.961,0,1.44c0,0.48-0.12,0.864-0.36,1.152c-0.241,0.336-0.588,0.54-1.044,0.612c-0.457,0.072-0.972,0.108-1.548,0.108
		h-3.888c-0.432,0-0.853-0.011-1.26-0.036c-0.409-0.023-0.756-0.083-1.044-0.18c-0.48-0.24-0.756-0.624-0.828-1.152
		c-0.072-0.527-0.108-1.127-0.108-1.8v-6.12V42.688c0-1.392-0.048-2.711-0.144-3.96c-0.097-1.248-0.409-2.279-0.936-3.096
		c-0.385-0.672-0.876-1.176-1.476-1.512c-0.601-0.335-1.332-0.623-2.196-0.864c-0.192-0.047-0.385-0.06-0.576-0.036
		c-0.192,0.025-0.408,0.012-0.648-0.036c-0.529-0.095-1.033-0.047-1.512,0.144c-0.097,0-0.192,0.013-0.288,0.036
		c-0.097,0.025-0.192,0.036-0.288,0.036c-0.769,0.241-1.512,0.648-2.232,1.224c-0.768,0.576-1.356,1.236-1.764,1.98
		c-0.409,0.745-0.696,1.584-0.864,2.52c-0.168,0.936-0.264,1.956-0.288,3.06c-0.024,1.105-0.036,2.304-0.036,3.6v9.72v4.392
		c0,0.432,0,0.864,0,1.296s-0.072,0.816-0.216,1.152c-0.192,0.432-0.552,0.696-1.08,0.792c-0.529,0.097-1.128,0.144-1.8,0.144
		h-3.744c-0.48,0-0.948-0.011-1.404-0.036c-0.457-0.023-0.828-0.131-1.116-0.324c-0.432-0.24-0.66-0.684-0.684-1.332
		c-0.025-0.648-0.036-1.332-0.036-2.052v-8.424V33.544v-4.32c0-0.527,0.011-0.996,0.036-1.404c0.023-0.407,0.131-0.756,0.324-1.044
		c0.24-0.288,0.624-0.479,1.152-0.576h0.432c0.24-0.047,0.492-0.072,0.756-0.072c0.263,0,0.515,0,0.756,0h2.952
		c0.384,0,0.756,0.012,1.116,0.036c0.36,0.025,0.684,0.084,0.972,0.18c0.383,0.144,0.635,0.385,0.756,0.72
		c0.119,0.336,0.227,0.72,0.324,1.152c0.047,0.144,0.06,0.277,0.036,0.396c-0.024,0.12,0.011,0.229,0.108,0.324
		c0.047,0.144,0.108,0.252,0.18,0.324c0.072,0.072,0.155,0.156,0.252,0.252c0.576,0.048,1.055-0.131,1.44-0.54
		c0.384-0.407,0.744-0.731,1.08-0.972c0.672-0.479,1.355-0.912,2.052-1.296c0.695-0.383,1.451-0.695,2.268-0.936
		c0.432-0.144,0.864-0.239,1.296-0.288c0.432-0.047,0.888-0.12,1.368-0.216c0.144-0.047,0.36-0.06,0.648-0.036
		C316.464,25.252,316.656,25.24,316.752,25.192z"/>
	<path fill="#CA2027" stroke="#000000" stroke-miterlimit="10" d="M397.896,43.192c0.096,0.288,0.144,0.696,0.144,1.224
		c0,0.528-0.048,0.936-0.144,1.224v0.72c-0.097,0.385-0.133,0.768-0.108,1.152c0.023,0.385-0.013,0.769-0.108,1.152
		c-0.097,0.336-0.169,0.648-0.216,0.936c-0.048,0.288-0.097,0.601-0.144,0.936c-0.192,0.529-0.36,1.069-0.504,1.62
		c-0.144,0.552-0.336,1.069-0.576,1.548c-1.008,2.304-2.329,4.176-3.96,5.616c-1.632,1.44-3.6,2.64-5.904,3.6
		c-0.576,0.241-1.165,0.419-1.764,0.54c-0.601,0.119-1.212,0.252-1.836,0.396c-0.241,0.095-0.504,0.144-0.792,0.144
		s-0.552,0.023-0.792,0.072c-0.144,0-0.3,0.011-0.468,0.036c-0.169,0.023-0.324,0.036-0.468,0.036
		c-0.241,0.047-0.625,0.083-1.152,0.108c-0.529,0.023-0.936-0.013-1.224-0.108h-0.72c-0.241-0.048-0.493-0.061-0.756-0.036
		c-0.264,0.023-0.516-0.013-0.756-0.108c-0.192-0.049-0.373-0.072-0.54-0.072c-0.169,0-0.373-0.025-0.612-0.072
		c-0.48-0.144-0.961-0.265-1.44-0.36c-0.48-0.097-0.936-0.239-1.368-0.432c-0.576-0.191-1.116-0.384-1.62-0.576
		c-0.504-0.191-1.021-0.432-1.548-0.72c-1.681-1.008-3.121-2.184-4.32-3.528c-1.201-1.343-2.208-2.952-3.024-4.824
		c-0.241-0.432-0.42-0.888-0.54-1.368c-0.12-0.479-0.252-0.983-0.396-1.512c-0.097-0.239-0.144-0.456-0.144-0.648
		c0-0.191-0.049-0.407-0.144-0.648c-0.097-0.384-0.144-0.78-0.144-1.188c0-0.407-0.048-0.803-0.144-1.188
		c-0.048-0.24-0.072-0.456-0.072-0.648c0-0.191,0-0.407,0-0.648c-0.097-0.288-0.133-0.695-0.108-1.224
		c0.024-0.528,0.083-0.936,0.18-1.224v-0.504c0.047-0.24,0.06-0.492,0.036-0.756c-0.025-0.263,0.011-0.515,0.108-0.756
		c0.047-0.24,0.072-0.468,0.072-0.684c0-0.216,0.047-0.443,0.144-0.684c0.191-0.624,0.36-1.235,0.504-1.836
		c0.144-0.6,0.335-1.188,0.576-1.764c0.864-1.968,1.896-3.611,3.096-4.932c1.199-1.319,2.664-2.531,4.392-3.636
		c0.479-0.24,0.983-0.456,1.512-0.648c0.527-0.191,1.055-0.407,1.584-0.648c0.623-0.24,1.271-0.407,1.944-0.504
		c0.672-0.095,1.368-0.239,2.088-0.432c0.384-0.047,0.744-0.072,1.08-0.072c0.335,0,0.672-0.023,1.008-0.072
		c2.783-0.047,5.195,0.241,7.236,0.864c2.04,0.625,3.852,1.488,5.436,2.592c0.528,0.385,1.067,0.804,1.62,1.26
		c0.551,0.457,1.019,0.948,1.404,1.476c0.384,0.48,0.731,0.961,1.044,1.44c0.312,0.48,0.636,0.984,0.972,1.512
		c0.335,0.529,0.6,1.092,0.792,1.692c0.191,0.601,0.407,1.236,0.648,1.908c0.144,0.385,0.263,0.792,0.36,1.224
		c0.096,0.432,0.191,0.864,0.288,1.296c0.047,0.192,0.072,0.385,0.072,0.576c0,0.192,0.023,0.385,0.072,0.576
		c0.096,0.241,0.119,0.504,0.072,0.792C397.775,42.688,397.799,42.952,397.896,43.192z M387.816,45.784
		c0.047-0.24,0.072-0.587,0.072-1.044c0-0.456-0.025-0.803-0.072-1.044V43.12c-0.097-0.239-0.144-0.504-0.144-0.792
		s-0.025-0.551-0.072-0.792c0-0.191-0.025-0.335-0.072-0.432c-0.097-0.384-0.18-0.78-0.252-1.188
		c-0.072-0.408-0.18-0.804-0.324-1.188c-0.529-1.248-1.152-2.315-1.872-3.204c-0.72-0.888-1.681-1.595-2.88-2.124
		c-0.288-0.096-0.576-0.18-0.864-0.252c-0.288-0.072-0.601-0.155-0.936-0.252c-0.385-0.096-0.792-0.132-1.224-0.108
		c-0.432,0.025-0.864,0.036-1.296,0.036c-0.144,0.097-0.312,0.133-0.504,0.108c-0.192-0.023-0.36-0.011-0.504,0.036
		c-0.336,0.097-0.661,0.18-0.972,0.252c-0.312,0.072-0.588,0.18-0.828,0.324c-1.2,0.529-2.172,1.285-2.916,2.268
		c-0.745,0.984-1.332,2.124-1.764,3.42c-0.144,0.48-0.252,0.984-0.324,1.512c-0.072,0.529-0.156,1.057-0.252,1.584
		c-0.048,0.241-0.072,0.48-0.072,0.72c0,0.241,0,0.48,0,0.72c-0.097,0.336-0.133,0.841-0.108,1.512
		c0.024,0.673,0.083,1.177,0.18,1.512v0.648c0.096,0.385,0.167,0.756,0.216,1.116c0.047,0.36,0.12,0.732,0.216,1.116
		c0.479,1.44,0.996,2.604,1.548,3.492c0.551,0.889,1.428,1.692,2.628,2.412c0.335,0.241,0.708,0.432,1.116,0.576
		c0.407,0.144,0.828,0.264,1.26,0.36c0.191,0.048,0.36,0.061,0.504,0.036c0.144-0.024,0.312-0.011,0.504,0.036
		c0.191,0.048,0.396,0.084,0.612,0.108c0.216,0.024,0.419,0.012,0.612-0.036h0.576c0.384-0.096,0.767-0.167,1.152-0.216
		c0.384-0.047,0.744-0.144,1.08-0.288c1.248-0.479,2.256-1.127,3.024-1.944c0.768-0.816,1.416-1.824,1.944-3.024
		c0.191-0.479,0.335-0.959,0.432-1.44c0.096-0.479,0.216-0.983,0.36-1.512c0.047-0.191,0.072-0.372,0.072-0.54
		c0-0.168,0.024-0.348,0.072-0.54c0-0.24,0-0.468,0-0.684S387.768,46.024,387.816,45.784z"/>
	<path fill="#CA2027" stroke="#000000" stroke-miterlimit="10" d="M409.631,15.04h4.824c0.72,0,1.356,0.036,1.908,0.108
		c0.551,0.072,0.947,0.372,1.188,0.9c0.096,0.241,0.144,0.529,0.144,0.864c0,0.336,0,0.673,0,1.008v3.24
		c0,0.241-0.013,0.517-0.036,0.828c-0.025,0.312-0.012,0.588,0.036,0.828v0.792c0,0.385,0.023,0.732,0.072,1.044
		c0.047,0.312,0.167,0.588,0.36,0.828c0.335,0.432,0.947,0.66,1.836,0.684c0.887,0.025,1.739,0.036,2.556,0.036
		c0.288,0,0.576,0,0.864,0s0.551,0.048,0.792,0.144c0.527,0.241,0.828,0.673,0.9,1.296c0.072,0.625,0.108,1.321,0.108,2.088
		c0,0.336,0.011,0.672,0.036,1.008c0.023,0.336-0.012,0.625-0.108,0.864c-0.241,0.769-0.745,1.177-1.512,1.224
		c-0.769,0.048-1.632,0.072-2.592,0.072c-0.192,0-0.396-0.011-0.612-0.036c-0.216-0.024-0.396-0.011-0.54,0.036
		c-0.192,0.048-0.36,0.061-0.504,0.036c-0.144-0.023-0.288,0.013-0.432,0.108c-0.385,0.097-0.66,0.301-0.828,0.612
		c-0.169,0.312-0.3,0.684-0.396,1.116c-0.048,0.241-0.048,0.504,0,0.792c0.047,0.288,0.047,0.553,0,0.792v4.464v8.424
		c0,1.2,0.036,2.245,0.108,3.132c0.072,0.889,0.371,1.668,0.9,2.34c0.24,0.288,0.563,0.493,0.972,0.612
		c0.407,0.121,0.828,0.229,1.26,0.324c0.144,0.048,0.299,0.061,0.468,0.036c0.167-0.023,0.299-0.011,0.396,0.036h0.792
		c0.527,0,0.983,0.025,1.368,0.072c0.384,0.048,0.695,0.241,0.936,0.576c0.191,0.288,0.288,0.661,0.288,1.116
		c0,0.457,0,0.925,0,1.404c0,1.008-0.012,1.933-0.036,2.772c-0.024,0.84-0.42,1.404-1.188,1.692
		c-0.241,0.096-0.457,0.132-0.648,0.108c-0.192-0.025-0.408,0.011-0.648,0.108h-0.72c-0.097,0-0.241-0.013-0.432-0.036
		c-0.192-0.025-0.36-0.012-0.504,0.036c-0.241,0.047-0.493,0.06-0.756,0.036c-0.264-0.025-0.516-0.036-0.756-0.036
		c-0.241,0-0.48,0.011-0.72,0.036c-0.241,0.023-0.457,0.011-0.648-0.036h-0.792c-0.241-0.048-0.504-0.072-0.792-0.072
		c-0.288,0-0.552-0.024-0.792-0.072c-0.336-0.048-0.648-0.097-0.936-0.144c-0.288-0.047-0.576-0.096-0.864-0.144
		c-0.529-0.144-1.033-0.312-1.512-0.504c-0.48-0.191-0.936-0.407-1.368-0.648c-0.144-0.096-0.288-0.204-0.432-0.324
		c-0.144-0.119-0.312-0.252-0.504-0.396c-0.097-0.096-0.216-0.204-0.36-0.324c-0.144-0.12-0.265-0.228-0.36-0.324
		c-0.673-0.911-1.177-1.919-1.512-3.024c-0.097-0.191-0.133-0.371-0.108-0.54c0.023-0.167,0.011-0.371-0.036-0.612
		c-0.048-0.096-0.072-0.216-0.072-0.36s-0.024-0.263-0.072-0.36V55c-0.048-0.191-0.061-0.407-0.036-0.648
		c0.024-0.239,0.036-0.479,0.036-0.72v-2.736V40.168v-3.816c0-0.335,0.011-0.671,0.036-1.008c0.023-0.335-0.013-0.648-0.108-0.936
		c-0.192-0.671-0.528-1.104-1.008-1.296c-0.529-0.24-1.2-0.312-2.016-0.216c-0.816,0.097-1.512,0.024-2.088-0.216
		c-0.385-0.144-0.625-0.36-0.72-0.648c-0.097-0.288-0.192-0.648-0.288-1.08V29.44c0-0.864,0.047-1.56,0.144-2.088
		c0.095-0.527,0.504-0.887,1.224-1.08c0.191-0.096,0.384-0.132,0.576-0.108c0.191,0.025,0.407,0.036,0.648,0.036
		c0.72,0,1.392-0.036,2.016-0.108c0.623-0.072,1.055-0.348,1.296-0.828c0.144-0.335,0.227-0.72,0.252-1.152
		c0.024-0.432,0.036-0.864,0.036-1.296v-4.464c0-0.383,0-0.792,0-1.224c0-0.432,0.047-0.792,0.144-1.08
		c0.24-0.479,0.6-0.792,1.08-0.936c0.095-0.047,0.227-0.06,0.396-0.036C409.403,15.101,409.534,15.088,409.631,15.04z"/>
	<path fill="#CA2027" stroke="#000000" stroke-miterlimit="10" d="M440.015,12.448c0.335,0.385,0.504,0.961,0.504,1.728
		c0,0.769,0,1.512,0,2.232c0,0.625,0,1.272,0,1.944c0,0.673-0.169,1.128-0.504,1.368c-0.288,0.241-0.661,0.385-1.116,0.432
		c-0.457,0.048-0.948,0.072-1.476,0.072h-4.032c-0.529,0-0.997-0.023-1.404-0.072c-0.408-0.047-0.756-0.191-1.044-0.432
		c-0.192-0.144-0.324-0.419-0.396-0.828c-0.072-0.407-0.12-0.864-0.144-1.368c-0.025-0.504-0.025-1.02,0-1.548
		c0.024-0.527,0.036-0.983,0.036-1.368c0-0.384,0.011-0.731,0.036-1.044c0.023-0.312,0.108-0.587,0.252-0.828
		c0.096-0.191,0.227-0.335,0.396-0.432c0.167-0.096,0.348-0.191,0.54-0.288c0.095,0,0.216-0.011,0.36-0.036
		c0.144-0.024,0.263-0.036,0.36-0.036h5.256c0.479,0,0.936,0.025,1.368,0.072C439.438,12.064,439.773,12.208,440.015,12.448z
		 M440.519,59.32c0,0.961-0.025,1.776-0.072,2.448c-0.048,0.673-0.48,1.128-1.296,1.368c-0.288,0.097-0.601,0.133-0.936,0.108
		c-0.336-0.023-0.696-0.036-1.08-0.036h-4.032c-0.432,0-0.853-0.024-1.26-0.072c-0.408-0.047-0.708-0.191-0.9-0.432
		c-0.288-0.335-0.444-0.756-0.468-1.26c-0.025-0.504-0.036-1.044-0.036-1.62V29.44c0-0.479,0-0.96,0-1.44
		c0-0.479,0.096-0.864,0.288-1.152c0.288-0.335,0.695-0.551,1.224-0.648c0.096-0.047,0.228-0.06,0.396-0.036
		c0.168,0.025,0.299,0.013,0.396-0.036h3.6c0.288,0,0.612-0.011,0.972-0.036c0.36-0.023,0.659-0.011,0.9,0.036h0.576
		c0.288,0.097,0.551,0.168,0.792,0.216c0.24,0.048,0.432,0.192,0.576,0.432c0.191,0.241,0.299,0.576,0.324,1.008
		c0.023,0.432,0.036,0.889,0.036,1.368V59.32z"/>
	<path fill="#CA2027" stroke="#000000" stroke-miterlimit="10" d="M462.766,11.944c0.432,0,0.924,0,1.476,0
		c0.551,0,1.104,0.025,1.656,0.072c0.551,0.048,1.044,0.133,1.476,0.252c0.432,0.121,0.72,0.301,0.864,0.54
		c0.288,0.385,0.432,0.925,0.432,1.62c0,0.696,0,1.357,0,1.98c0,0.48-0.012,0.961-0.036,1.44c-0.025,0.48-0.133,0.84-0.324,1.08
		c-0.192,0.288-0.432,0.468-0.72,0.54c-0.288,0.072-0.612,0.108-0.972,0.108s-0.72-0.011-1.08-0.036
		c-0.36-0.023-0.708-0.011-1.044,0.036c-0.864,0.192-1.537,0.421-2.016,0.684c-0.48,0.264-0.864,0.804-1.152,1.62
		c-0.097,0.144-0.133,0.277-0.108,0.396c0.023,0.12,0.011,0.252-0.036,0.396c-0.048,0.192-0.097,0.48-0.144,0.864
		c-0.048,0.385-0.048,0.696,0,0.936c0.096,0.336,0.216,0.625,0.36,0.864c0.144,0.241,0.36,0.432,0.648,0.576
		c0.479,0.241,1.056,0.313,1.728,0.216c0.672-0.096,1.296-0.096,1.872,0c0.24,0.048,0.443,0.061,0.612,0.036
		c0.167-0.023,0.348-0.011,0.54,0.036c0.432,0.192,0.743,0.409,0.936,0.648c0.096,0.144,0.168,0.373,0.216,0.684
		c0.047,0.313,0.096,0.648,0.144,1.008c0.047,0.36,0.06,0.72,0.036,1.08c-0.024,0.36-0.061,0.637-0.108,0.828
		c-0.048,0.192-0.048,0.373,0,0.54c0.047,0.169,0.024,0.349-0.072,0.54c-0.097,0.576-0.385,0.936-0.864,1.08
		c-0.385,0.192-0.84,0.277-1.368,0.252c-0.529-0.024-1.057-0.036-1.584-0.036c-0.144,0-0.313,0-0.504,0
		c-0.192,0-0.36,0.025-0.504,0.072h-0.576c-0.817,0.192-1.321,0.72-1.512,1.584c-0.097,0.288-0.12,0.624-0.072,1.008
		c0.047,0.385,0.072,0.769,0.072,1.152v4.392v14.04v3.384c0,0.288,0.011,0.588,0.036,0.9c0.023,0.312-0.013,0.588-0.108,0.828v0.792
		c0,0.769-0.121,1.321-0.36,1.656c-0.097,0.144-0.264,0.252-0.504,0.324c-0.241,0.072-0.48,0.157-0.72,0.252h-0.36
		c-0.241,0.048-0.504,0.061-0.792,0.036c-0.288-0.023-0.552-0.036-0.792-0.036h-3.168c-0.336,0-0.684,0.012-1.044,0.036
		c-0.36,0.025-0.66-0.011-0.9-0.108c-0.576-0.144-0.961-0.384-1.152-0.72c-0.144-0.24-0.229-0.551-0.252-0.936
		c-0.024-0.384-0.036-0.768-0.036-1.152v-3.744v-20.16c0-0.815-0.048-1.523-0.144-2.124c-0.097-0.6-0.432-1.019-1.008-1.26
		c-0.528-0.239-1.177-0.299-1.944-0.18c-0.768,0.12-1.417,0.061-1.944-0.18c-0.529-0.24-0.864-0.648-1.008-1.224
		c-0.095-0.239-0.131-0.527-0.108-0.864c0.025-0.335,0.036-0.672,0.036-1.008c0-0.864,0.047-1.584,0.144-2.16
		c0.096-0.576,0.504-0.983,1.224-1.224c0.383-0.096,0.792-0.144,1.224-0.144c0.432,0,0.852,0,1.26,0c0.407,0,0.78-0.036,1.116-0.108
		c0.335-0.072,0.6-0.252,0.792-0.54c0.335-0.479,0.468-1.091,0.396-1.836c-0.072-0.744-0.036-1.451,0.108-2.124
		c0.047-0.191,0.083-0.384,0.108-0.576c0.023-0.191,0.06-0.407,0.108-0.648c0.191-0.671,0.384-1.284,0.576-1.836
		c0.191-0.551,0.456-1.067,0.792-1.548c0.671-1.152,1.559-2.076,2.664-2.772c1.104-0.695,2.351-1.235,3.744-1.62
		c0.384-0.144,0.792-0.227,1.224-0.252c0.432-0.023,0.864-0.083,1.296-0.18c0.144-0.047,0.36-0.047,0.648,0
		C462.478,12.064,462.669,12.041,462.766,11.944z"/>
	<path fill="#CA2027" stroke="#000000" stroke-miterlimit="10" d="M493.51,39.592c0.24,0.192,0.407,0.493,0.504,0.9
		c0.096,0.409,0.155,0.864,0.18,1.368c0.023,0.504,0.023,1.021,0,1.548c-0.025,0.529-0.036,1.008-0.036,1.44
		c0,0.385,0,0.756,0,1.116s-0.048,0.684-0.144,0.972c-0.241,0.529-0.625,0.828-1.152,0.9c-0.529,0.072-1.152,0.108-1.872,0.108
		h-13.464c-0.625,0-1.368,0.012-2.232,0.036c-0.864,0.024-1.488-0.083-1.872-0.324c-0.288-0.191-0.493-0.492-0.612-0.9
		c-0.12-0.407-0.192-0.864-0.216-1.368c-0.025-0.504-0.025-1.032,0-1.584c0.023-0.551,0.036-1.044,0.036-1.476
		c0-0.432,0.011-0.864,0.036-1.296c0.024-0.432,0.108-0.767,0.252-1.008c0.191-0.24,0.504-0.456,0.936-0.648
		c0.096,0,0.204-0.011,0.324-0.036c0.119-0.024,0.227-0.036,0.324-0.036h16.92c0.432,0,0.828,0.012,1.188,0.036
		C492.97,39.365,493.269,39.448,493.51,39.592z"/>
	<path fill="#CA2027" stroke="#000000" stroke-miterlimit="10" d="M501.861,26.128h5.76c0.671,0,1.307,0.024,1.908,0.072
		c0.6,0.048,1.091,0.216,1.476,0.504c0.335,0.241,0.636,0.565,0.9,0.972c0.263,0.408,0.516,0.804,0.756,1.188
		c0.383,0.625,0.792,1.236,1.224,1.836c0.432,0.601,0.864,1.213,1.296,1.836c0.239,0.385,0.515,0.817,0.828,1.296
		c0.312,0.48,0.708,0.792,1.188,0.936c0.191,0.048,0.372,0.036,0.54-0.036c0.168-0.072,0.299-0.155,0.396-0.252
		c0.335-0.24,0.6-0.528,0.792-0.864c0.191-0.335,0.407-0.671,0.648-1.008c0.384-0.624,0.792-1.235,1.224-1.836
		c0.432-0.6,0.864-1.212,1.296-1.836c0.384-0.671,0.756-1.248,1.116-1.728c0.36-0.479,0.972-0.816,1.836-1.008
		c0.335-0.096,0.695-0.131,1.08-0.108c0.384,0.025,0.767,0.036,1.152,0.036h4.464c0.479,0,0.947,0.036,1.404,0.108
		c0.456,0.072,0.731,0.3,0.828,0.684c0.095,0.241,0.083,0.468-0.036,0.684c-0.121,0.216-0.229,0.396-0.324,0.54
		c-0.241,0.48-0.529,0.925-0.864,1.332c-0.336,0.409-0.648,0.853-0.936,1.332c-1.105,1.537-2.185,3.073-3.24,4.608
		c-1.056,1.537-2.136,3.072-3.24,4.608c-0.288,0.385-0.576,0.768-0.864,1.152c-0.288,0.385-0.552,0.817-0.792,1.296
		c-0.097,0.144-0.18,0.336-0.252,0.576c-0.072,0.241-0.084,0.48-0.036,0.72c0.144,0.529,0.347,0.972,0.612,1.332
		c0.263,0.36,0.515,0.732,0.756,1.116c0.288,0.385,0.576,0.781,0.864,1.188c0.288,0.408,0.551,0.804,0.792,1.188
		c1.055,1.488,2.088,2.977,3.096,4.464c1.008,1.488,2.04,3,3.096,4.536c0.384,0.576,0.792,1.152,1.224,1.728
		c0.432,0.576,0.839,1.177,1.224,1.8c0.096,0.144,0.216,0.349,0.36,0.612c0.144,0.264,0.144,0.54,0,0.828
		c-0.097,0.336-0.36,0.529-0.792,0.576c-0.432,0.048-0.889,0.072-1.368,0.072h-6.624c-0.241-0.047-0.48-0.083-0.72-0.108
		c-0.241-0.023-0.48-0.083-0.72-0.18c-0.529-0.384-0.961-0.864-1.296-1.44c-0.336-0.576-0.696-1.127-1.08-1.656
		c-0.529-0.72-1.033-1.451-1.512-2.196c-0.48-0.744-0.96-1.476-1.44-2.196c-0.288-0.432-0.637-0.972-1.044-1.62
		c-0.408-0.648-0.876-1.044-1.404-1.188c-0.336-0.096-0.625-0.036-0.864,0.18c-0.241,0.216-0.408,0.421-0.504,0.612
		c-0.385,0.528-0.756,1.068-1.116,1.62c-0.36,0.553-0.732,1.116-1.116,1.692l-2.808,4.104c-0.241,0.385-0.493,0.769-0.756,1.152
		c-0.265,0.385-0.612,0.696-1.044,0.936c-0.529,0.241-1.285,0.349-2.268,0.324c-0.984-0.023-1.861-0.036-2.628-0.036h-2.376
		c-0.192,0-0.396,0.012-0.612,0.036c-0.216,0.025-0.396,0.013-0.54-0.036c-0.192-0.047-0.372-0.06-0.54-0.036
		c-0.168,0.025-0.324-0.011-0.468-0.108c-0.144-0.096-0.252-0.18-0.324-0.252c-0.072-0.072-0.156-0.155-0.252-0.252
		c-0.048-0.479,0.024-0.875,0.216-1.188c0.191-0.312,0.383-0.612,0.576-0.9c0.384-0.527,0.756-1.055,1.116-1.584
		c0.36-0.527,0.731-1.055,1.116-1.584c0.96-1.392,1.919-2.808,2.88-4.248c0.959-1.44,1.919-2.88,2.88-4.32
		c0.335-0.432,0.648-0.864,0.936-1.296c0.288-0.432,0.576-0.864,0.864-1.296c0.24-0.335,0.468-0.671,0.684-1.008
		c0.216-0.335,0.371-0.744,0.468-1.224c0.095-0.239,0.095-0.456,0-0.648c-0.097-0.191-0.169-0.335-0.216-0.432
		c-0.241-0.527-0.516-0.996-0.828-1.404c-0.313-0.407-0.612-0.828-0.9-1.26c-1.104-1.68-2.221-3.3-3.348-4.86
		c-1.128-1.559-2.245-3.179-3.348-4.86c-0.241-0.384-0.504-0.767-0.792-1.152c-0.288-0.384-0.552-0.792-0.792-1.224
		c-0.097-0.144-0.205-0.312-0.324-0.504c-0.12-0.191-0.133-0.407-0.036-0.648c0.095-0.24,0.216-0.396,0.36-0.468
		c0.144-0.072,0.335-0.155,0.576-0.252C501.573,26.2,501.765,26.176,501.861,26.128z"/>
</g>
<defs>
	<filter id="Adobe_OpacityMaskFilter_1_" filterUnits="userSpaceOnUse" x="545.658" y="26.085" width="152.329" height="37.171">
		<feColorMatrix  type="matrix" values="1 0 0 0 0  0 1 0 0 0  0 0 1 0 0  0 0 0 1 0"/>
	</filter>
</defs>
<mask maskUnits="userSpaceOnUse" x="545.658" y="26.085" width="152.329" height="37.171" id="SVGID_3_">
	<g filter="url(#Adobe_OpacityMaskFilter_1_)">
		
			<linearGradient id="SVGID_4_" gradientUnits="userSpaceOnUse" x1="-779.791" y1="44.25" x2="-520.5674" y2="44.25" gradientTransform="matrix(-0.6012 0 0 1 229.3089 0)">
			<stop  offset="0" style="stop-color:#FFFFFF;stop-opacity:0"/>
			<stop  offset="0.8653" style="stop-color:#FFFFFF"/>
		</linearGradient>
		<rect x="542.248" y="14.5" fill="url(#SVGID_4_)" width="155.833" height="59.5"/>
	</g>
</mask>
<g mask="url(#SVGID_3_)">
	<path fill="#800000000080000000" d="M695.884,26.2c0.241,0.097,0.433,0.18,0.576,0.252c0.144,0.072,0.265,0.229,0.36,0.468
		c0.097,0.241,0.084,0.457-0.036,0.648c-0.12,0.192-0.228,0.36-0.324,0.504c-0.239,0.432-0.504,0.84-0.792,1.224
		c-0.288,0.385-0.551,0.768-0.792,1.152c-1.104,1.681-2.22,3.301-3.349,4.86c-1.127,1.561-2.242,3.181-3.348,4.86
		c-0.287,0.432-0.587,0.853-0.9,1.26c-0.311,0.408-0.586,0.876-0.827,1.404c-0.048,0.097-0.119,0.241-0.216,0.432
		c-0.096,0.192-0.096,0.409,0,0.648c0.097,0.48,0.252,0.889,0.468,1.224c0.216,0.336,0.444,0.673,0.685,1.008
		c0.287,0.432,0.575,0.864,0.863,1.296c0.288,0.432,0.601,0.864,0.936,1.296c0.961,1.44,1.921,2.88,2.881,4.32
		c0.961,1.44,1.92,2.856,2.88,4.248c0.385,0.529,0.756,1.057,1.116,1.584c0.359,0.529,0.732,1.057,1.115,1.584
		c0.193,0.288,0.385,0.588,0.576,0.9c0.192,0.313,0.265,0.709,0.217,1.188c-0.096,0.097-0.181,0.18-0.252,0.252
		c-0.072,0.072-0.181,0.156-0.324,0.252c-0.145,0.097-0.3,0.133-0.469,0.108c-0.168-0.024-0.348-0.011-0.539,0.036
		c-0.145,0.048-0.324,0.061-0.541,0.036c-0.216-0.023-0.42-0.036-0.611-0.036h-2.377c-0.767,0-1.643,0.012-2.627,0.036
		c-0.984,0.025-1.74-0.083-2.269-0.324c-0.432-0.24-0.779-0.551-1.044-0.936c-0.264-0.384-0.516-0.768-0.756-1.152l-2.809-4.104
		c-0.383-0.576-0.756-1.14-1.115-1.692c-0.36-0.551-0.731-1.091-1.116-1.62c-0.096-0.191-0.263-0.396-0.504-0.612
		c-0.239-0.216-0.528-0.275-0.864-0.18c-0.527,0.144-0.996,0.54-1.404,1.188c-0.406,0.648-0.756,1.188-1.043,1.62
		c-0.48,0.72-0.96,1.453-1.44,2.196c-0.479,0.745-0.983,1.476-1.513,2.196c-0.383,0.529-0.743,1.08-1.08,1.656
		c-0.334,0.576-0.767,1.056-1.295,1.44c-0.24,0.097-0.479,0.156-0.721,0.18c-0.239,0.025-0.479,0.061-0.72,0.108h-6.624
		c-0.479,0-0.936-0.024-1.368-0.072c-0.432-0.047-0.695-0.24-0.792-0.576c-0.145-0.288-0.145-0.563,0-0.828
		c0.145-0.263,0.265-0.468,0.36-0.612c0.385-0.623,0.792-1.224,1.224-1.8s0.84-1.152,1.225-1.728
		c1.057-1.536,2.088-3.048,3.096-4.536c1.008-1.487,2.041-2.976,3.096-4.464c0.24-0.384,0.504-0.78,0.792-1.188
		c0.288-0.407,0.576-0.803,0.864-1.188c0.24-0.384,0.492-0.756,0.756-1.116c0.265-0.36,0.469-0.803,0.611-1.332
		c0.049-0.239,0.037-0.479-0.035-0.72c-0.072-0.24-0.155-0.432-0.252-0.576c-0.24-0.479-0.504-0.911-0.792-1.296
		c-0.288-0.384-0.576-0.767-0.864-1.152c-1.104-1.536-2.184-3.071-3.24-4.608c-1.055-1.536-2.135-3.071-3.24-4.608
		c-0.287-0.479-0.6-0.923-0.936-1.332c-0.335-0.407-0.623-0.852-0.863-1.332c-0.096-0.144-0.204-0.324-0.324-0.54
		c-0.119-0.216-0.132-0.443-0.037-0.684c0.098-0.384,0.373-0.612,0.828-0.684c0.457-0.072,0.926-0.108,1.404-0.108h4.465
		c0.385,0,0.768-0.011,1.151-0.036c0.385-0.023,0.745,0.012,1.08,0.108c0.864,0.192,1.476,0.529,1.836,1.008
		c0.36,0.48,0.732,1.056,1.116,1.728c0.432,0.625,0.863,1.237,1.296,1.836c0.433,0.601,0.841,1.212,1.224,1.836
		c0.241,0.336,0.457,0.673,0.648,1.008c0.192,0.336,0.457,0.625,0.792,0.864c0.097,0.097,0.228,0.18,0.396,0.252
		c0.169,0.072,0.35,0.084,0.541,0.036c0.48-0.144,0.876-0.456,1.188-0.936c0.312-0.479,0.588-0.911,0.828-1.296
		c0.432-0.623,0.863-1.235,1.296-1.836c0.432-0.6,0.841-1.211,1.224-1.836c0.24-0.384,0.493-0.78,0.756-1.188
		c0.265-0.407,0.564-0.731,0.9-0.972c0.385-0.288,0.877-0.456,1.477-0.504c0.6-0.047,1.236-0.072,1.907-0.072h5.761
		C695.404,26.176,695.596,26.2,695.884,26.2z"/>
	<path fill="#800000000080000000" d="M657.221,26.2c0.241,0.097,0.432,0.18,0.576,0.252c0.145,0.072,0.265,0.229,0.359,0.468
		c0.098,0.241,0.085,0.457-0.035,0.648c-0.119,0.192-0.228,0.36-0.324,0.504c-0.24,0.432-0.504,0.84-0.792,1.224
		c-0.288,0.385-0.552,0.768-0.792,1.152c-1.104,1.681-2.22,3.301-3.348,4.86c-1.127,1.561-2.244,3.181-3.348,4.86
		c-0.289,0.432-0.588,0.853-0.9,1.26c-0.312,0.408-0.588,0.876-0.828,1.404c-0.047,0.097-0.119,0.241-0.217,0.432
		c-0.095,0.192-0.095,0.409,0,0.648c0.098,0.48,0.252,0.889,0.469,1.224c0.216,0.336,0.444,0.673,0.684,1.008
		c0.288,0.432,0.576,0.864,0.864,1.296c0.288,0.432,0.601,0.864,0.937,1.296c0.961,1.44,1.92,2.88,2.879,4.32
		c0.961,1.44,1.921,2.856,2.881,4.248c0.385,0.529,0.756,1.057,1.115,1.584c0.36,0.529,0.732,1.057,1.117,1.584
		c0.191,0.288,0.385,0.588,0.575,0.9c0.192,0.313,0.265,0.709,0.216,1.188c-0.096,0.097-0.18,0.18-0.252,0.252
		c-0.072,0.072-0.18,0.156-0.324,0.252c-0.144,0.097-0.299,0.133-0.467,0.108c-0.168-0.024-0.348-0.011-0.541,0.036
		c-0.144,0.048-0.324,0.061-0.539,0.036c-0.217-0.023-0.42-0.036-0.613-0.036h-2.375c-0.768,0-1.645,0.012-2.629,0.036
		c-0.982,0.025-1.738-0.083-2.268-0.324c-0.432-0.24-0.779-0.551-1.044-0.936c-0.263-0.384-0.515-0.768-0.756-1.152l-2.808-4.104
		c-0.385-0.576-0.756-1.14-1.116-1.692c-0.36-0.551-0.731-1.091-1.116-1.62c-0.096-0.191-0.264-0.396-0.504-0.612
		c-0.24-0.216-0.527-0.275-0.864-0.18c-0.527,0.144-0.995,0.54-1.403,1.188c-0.408,0.648-0.756,1.188-1.045,1.62
		c-0.479,0.72-0.959,1.453-1.439,2.196c-0.479,0.745-0.983,1.476-1.512,2.196c-0.384,0.529-0.744,1.08-1.08,1.656
		c-0.335,0.576-0.767,1.056-1.296,1.44c-0.24,0.097-0.479,0.156-0.72,0.18c-0.24,0.025-0.479,0.061-0.72,0.108h-6.624
		c-0.479,0-0.936-0.024-1.368-0.072c-0.432-0.047-0.695-0.24-0.792-0.576c-0.144-0.288-0.144-0.563,0-0.828
		c0.144-0.263,0.265-0.468,0.36-0.612c0.385-0.623,0.792-1.224,1.224-1.8c0.432-0.576,0.84-1.152,1.224-1.728
		c1.057-1.536,2.088-3.048,3.096-4.536c1.008-1.487,2.041-2.976,3.096-4.464c0.241-0.384,0.504-0.78,0.792-1.188
		c0.288-0.407,0.576-0.803,0.864-1.188c0.241-0.384,0.493-0.756,0.756-1.116c0.265-0.36,0.468-0.803,0.612-1.332
		c0.049-0.239,0.036-0.479-0.036-0.72c-0.072-0.24-0.155-0.432-0.252-0.576c-0.24-0.479-0.504-0.911-0.792-1.296
		c-0.288-0.384-0.576-0.767-0.864-1.152c-1.104-1.536-2.184-3.071-3.24-4.608c-1.055-1.536-2.135-3.071-3.24-4.608
		c-0.288-0.479-0.6-0.923-0.936-1.332c-0.335-0.407-0.623-0.852-0.864-1.332c-0.096-0.144-0.204-0.324-0.324-0.54
		c-0.119-0.216-0.131-0.443-0.036-0.684c0.097-0.384,0.373-0.612,0.828-0.684c0.457-0.072,0.925-0.108,1.404-0.108h4.464
		c0.385,0,0.768-0.011,1.152-0.036c0.385-0.023,0.745,0.012,1.08,0.108c0.864,0.192,1.476,0.529,1.836,1.008
		c0.36,0.48,0.732,1.056,1.116,1.728c0.432,0.625,0.864,1.237,1.296,1.836c0.432,0.601,0.84,1.212,1.225,1.836
		c0.24,0.336,0.456,0.673,0.647,1.008c0.192,0.336,0.456,0.625,0.792,0.864c0.097,0.097,0.229,0.18,0.396,0.252
		c0.168,0.072,0.348,0.084,0.539,0.036c0.48-0.144,0.877-0.456,1.188-0.936c0.312-0.479,0.589-0.911,0.827-1.296
		c0.433-0.623,0.865-1.235,1.297-1.836c0.432-0.6,0.84-1.211,1.224-1.836c0.241-0.384,0.493-0.78,0.757-1.188
		c0.264-0.407,0.564-0.731,0.899-0.972c0.385-0.288,0.876-0.456,1.476-0.504c0.602-0.047,1.236-0.072,1.908-0.072h5.76
		C656.742,26.176,656.934,26.2,657.221,26.2z"/>
	<path fill="#800000000080000000" d="M618.558,26.2c0.241,0.097,0.432,0.18,0.576,0.252c0.144,0.072,0.265,0.229,0.36,0.468
		c0.097,0.241,0.084,0.457-0.036,0.648c-0.12,0.192-0.228,0.36-0.324,0.504c-0.24,0.432-0.504,0.84-0.792,1.224
		c-0.288,0.385-0.551,0.768-0.792,1.152c-1.104,1.681-2.22,3.301-3.348,4.86c-1.127,1.561-2.243,3.181-3.348,4.86
		c-0.288,0.432-0.587,0.853-0.9,1.26c-0.312,0.408-0.587,0.876-0.828,1.404c-0.047,0.097-0.119,0.241-0.216,0.432
		c-0.095,0.192-0.095,0.409,0,0.648c0.097,0.48,0.252,0.889,0.468,1.224c0.216,0.336,0.444,0.673,0.684,1.008
		c0.288,0.432,0.576,0.864,0.864,1.296c0.288,0.432,0.601,0.864,0.936,1.296c0.961,1.44,1.92,2.88,2.88,4.32
		c0.961,1.44,1.92,2.856,2.88,4.248c0.385,0.529,0.756,1.057,1.116,1.584c0.36,0.529,0.732,1.057,1.116,1.584
		c0.192,0.288,0.385,0.588,0.576,0.9c0.192,0.313,0.265,0.709,0.216,1.188c-0.096,0.097-0.18,0.18-0.252,0.252
		c-0.072,0.072-0.18,0.156-0.324,0.252c-0.144,0.097-0.299,0.133-0.468,0.108c-0.168-0.024-0.348-0.011-0.54,0.036
		c-0.144,0.048-0.324,0.061-0.54,0.036c-0.216-0.023-0.42-0.036-0.612-0.036h-2.376c-0.767,0-1.644,0.012-2.628,0.036
		c-0.983,0.025-1.739-0.083-2.268-0.324c-0.432-0.24-0.779-0.551-1.044-0.936c-0.263-0.384-0.515-0.768-0.756-1.152l-2.808-4.104
		c-0.384-0.576-0.756-1.14-1.116-1.692c-0.36-0.551-0.731-1.091-1.116-1.62c-0.096-0.191-0.263-0.396-0.504-0.612
		c-0.24-0.216-0.528-0.275-0.864-0.18c-0.527,0.144-0.996,0.54-1.404,1.188c-0.407,0.648-0.756,1.188-1.044,1.62
		c-0.479,0.72-0.959,1.453-1.44,2.196c-0.479,0.745-0.983,1.476-1.512,2.196c-0.384,0.529-0.744,1.08-1.08,1.656
		c-0.335,0.576-0.767,1.056-1.296,1.44c-0.24,0.097-0.479,0.156-0.72,0.18c-0.24,0.025-0.479,0.061-0.72,0.108h-6.624
		c-0.479,0-0.936-0.024-1.368-0.072c-0.432-0.047-0.695-0.24-0.792-0.576c-0.144-0.288-0.144-0.563,0-0.828
		c0.144-0.263,0.265-0.468,0.36-0.612c0.385-0.623,0.792-1.224,1.224-1.8c0.432-0.576,0.84-1.152,1.224-1.728
		c1.057-1.536,2.088-3.048,3.096-4.536c1.008-1.487,2.041-2.976,3.096-4.464c0.241-0.384,0.504-0.78,0.792-1.188
		c0.288-0.407,0.576-0.803,0.864-1.188c0.241-0.384,0.493-0.756,0.756-1.116c0.265-0.36,0.468-0.803,0.612-1.332
		c0.049-0.239,0.036-0.479-0.036-0.72c-0.072-0.24-0.155-0.432-0.252-0.576c-0.24-0.479-0.504-0.911-0.792-1.296
		c-0.288-0.384-0.576-0.767-0.864-1.152c-1.104-1.536-2.184-3.071-3.24-4.608c-1.055-1.536-2.135-3.071-3.24-4.608
		c-0.288-0.479-0.6-0.923-0.936-1.332c-0.335-0.407-0.623-0.852-0.864-1.332c-0.096-0.144-0.204-0.324-0.324-0.54
		c-0.119-0.216-0.131-0.443-0.036-0.684c0.097-0.384,0.373-0.612,0.828-0.684c0.457-0.072,0.925-0.108,1.404-0.108h4.464
		c0.385,0,0.768-0.011,1.152-0.036c0.385-0.023,0.745,0.012,1.08,0.108c0.864,0.192,1.476,0.529,1.836,1.008
		c0.36,0.48,0.732,1.056,1.116,1.728c0.432,0.625,0.864,1.237,1.296,1.836c0.432,0.601,0.84,1.212,1.224,1.836
		c0.241,0.336,0.457,0.673,0.648,1.008c0.192,0.336,0.457,0.625,0.792,0.864c0.097,0.097,0.228,0.18,0.396,0.252
		c0.168,0.072,0.349,0.084,0.54,0.036c0.48-0.144,0.876-0.456,1.188-0.936c0.312-0.479,0.588-0.911,0.828-1.296
		c0.432-0.623,0.864-1.235,1.296-1.836c0.432-0.6,0.84-1.211,1.224-1.836c0.241-0.384,0.493-0.78,0.756-1.188
		c0.264-0.407,0.564-0.731,0.9-0.972c0.385-0.288,0.876-0.456,1.476-0.504c0.601-0.047,1.236-0.072,1.908-0.072h5.76
		C618.079,26.176,618.27,26.2,618.558,26.2z"/>
	<path fill="#800000000080000000" d="M579.895,26.2c0.241,0.097,0.432,0.18,0.576,0.252c0.144,0.072,0.265,0.229,0.36,0.468
		c0.097,0.241,0.084,0.457-0.036,0.648c-0.12,0.192-0.228,0.36-0.324,0.504c-0.24,0.432-0.504,0.84-0.792,1.224
		c-0.288,0.385-0.551,0.768-0.792,1.152c-1.104,1.681-2.22,3.301-3.348,4.86c-1.127,1.561-2.243,3.181-3.348,4.86
		c-0.288,0.432-0.587,0.853-0.9,1.26c-0.312,0.408-0.587,0.876-0.828,1.404c-0.047,0.097-0.119,0.241-0.216,0.432
		c-0.095,0.192-0.095,0.409,0,0.648c0.097,0.48,0.252,0.889,0.468,1.224c0.216,0.336,0.444,0.673,0.684,1.008
		c0.288,0.432,0.576,0.864,0.864,1.296c0.288,0.432,0.601,0.864,0.936,1.296c0.961,1.44,1.92,2.88,2.88,4.32
		c0.961,1.44,1.92,2.856,2.88,4.248c0.385,0.529,0.756,1.057,1.116,1.584c0.36,0.529,0.732,1.057,1.116,1.584
		c0.192,0.288,0.385,0.588,0.576,0.9c0.192,0.313,0.265,0.709,0.216,1.188c-0.096,0.097-0.18,0.18-0.252,0.252
		c-0.072,0.072-0.18,0.156-0.324,0.252c-0.144,0.097-0.299,0.133-0.468,0.108c-0.168-0.024-0.348-0.011-0.54,0.036
		c-0.144,0.048-0.324,0.061-0.54,0.036c-0.216-0.023-0.42-0.036-0.612-0.036h-2.376c-0.767,0-1.644,0.012-2.628,0.036
		c-0.983,0.025-1.739-0.083-2.268-0.324c-0.432-0.24-0.779-0.551-1.044-0.936c-0.263-0.384-0.515-0.768-0.756-1.152l-2.808-4.104
		c-0.384-0.576-0.756-1.14-1.116-1.692c-0.36-0.551-0.731-1.091-1.116-1.62c-0.096-0.191-0.263-0.396-0.504-0.612
		c-0.24-0.216-0.528-0.275-0.864-0.18c-0.527,0.144-0.996,0.54-1.404,1.188c-0.407,0.648-0.756,1.188-1.044,1.62
		c-0.479,0.72-0.959,1.453-1.44,2.196c-0.479,0.745-0.983,1.476-1.512,2.196c-0.384,0.529-0.744,1.08-1.08,1.656
		c-0.335,0.576-0.767,1.056-1.296,1.44c-0.24,0.097-0.479,0.156-0.72,0.18c-0.24,0.025-0.479,0.061-0.72,0.108h-6.624
		c-0.479,0-0.936-0.024-1.368-0.072c-0.432-0.047-0.695-0.24-0.792-0.576c-0.144-0.288-0.144-0.563,0-0.828
		c0.144-0.263,0.265-0.468,0.36-0.612c0.385-0.623,0.792-1.224,1.224-1.8c0.432-0.576,0.84-1.152,1.224-1.728
		c1.057-1.536,2.088-3.048,3.096-4.536c1.008-1.487,2.041-2.976,3.096-4.464c0.241-0.384,0.504-0.78,0.792-1.188
		c0.288-0.407,0.576-0.803,0.864-1.188c0.241-0.384,0.493-0.756,0.756-1.116c0.265-0.36,0.468-0.803,0.612-1.332
		c0.049-0.239,0.036-0.479-0.036-0.72c-0.072-0.24-0.155-0.432-0.252-0.576c-0.24-0.479-0.504-0.911-0.792-1.296
		c-0.288-0.384-0.576-0.767-0.864-1.152c-1.104-1.536-2.184-3.071-3.24-4.608c-1.055-1.536-2.135-3.071-3.24-4.608
		c-0.288-0.479-0.6-0.923-0.936-1.332c-0.335-0.407-0.623-0.852-0.864-1.332c-0.096-0.144-0.204-0.324-0.324-0.54
		c-0.119-0.216-0.131-0.443-0.036-0.684c0.097-0.384,0.373-0.612,0.828-0.684c0.457-0.072,0.925-0.108,1.404-0.108h4.464
		c0.385,0,0.768-0.011,1.152-0.036c0.385-0.023,0.745,0.012,1.08,0.108c0.864,0.192,1.476,0.529,1.836,1.008
		c0.36,0.48,0.732,1.056,1.116,1.728c0.432,0.625,0.864,1.237,1.296,1.836c0.432,0.601,0.84,1.212,1.224,1.836
		c0.241,0.336,0.457,0.673,0.648,1.008c0.192,0.336,0.457,0.625,0.792,0.864c0.097,0.097,0.228,0.18,0.396,0.252
		c0.168,0.072,0.349,0.084,0.54,0.036c0.48-0.144,0.876-0.456,1.188-0.936c0.312-0.479,0.588-0.911,0.828-1.296
		c0.432-0.623,0.864-1.235,1.296-1.836c0.432-0.6,0.84-1.211,1.224-1.836c0.241-0.384,0.493-0.78,0.756-1.188
		c0.264-0.407,0.564-0.731,0.9-0.972c0.385-0.288,0.876-0.456,1.476-0.504c0.601-0.047,1.236-0.072,1.908-0.072h5.76
		C579.416,26.176,579.607,26.2,579.895,26.2z"/>
</g>
</svg>
