<?xml version="1.0" encoding="utf-8"?>
<!-- Generator: Adobe Illustrator 16.0.0, SVG Export Plug-In . SVG Version: 6.00 Build 0)  -->
<!DOCTYPE svg PUBLIC "-//W3C//DTD SVG 1.1//EN" "http://www.w3.org/Graphics/SVG/1.1/DTD/svg11.dtd">
<svg version="1.1" id="Layer_1" xmlns="http://www.w3.org/2000/svg" xmlns:xlink="http://www.w3.org/1999/xlink" x="0px" y="0px"
	 width="581.5px" height="88.75px" viewBox="0 0 581.5 88.75" enable-background="new 0 0 581.5 88.75" xml:space="preserve">
<g enable-background="new    ">
	<path d="M21.317,15.191c0.528,0,0.996,0.048,1.404,0.144c0.407,0.097,0.731,0.313,0.972,0.648c0.288,0.385,0.432,1.044,0.432,1.979
		c0,0.937,0,1.765,0,2.484c0,0.528,0.011,1.128,0.036,1.8c0.023,0.673-0.061,1.2-0.252,1.584c-0.192,0.337-0.468,0.553-0.828,0.648
		c-0.36,0.097-0.769,0.144-1.224,0.144c-0.457,0-0.936-0.023-1.44-0.071s-0.972-0.024-1.404,0.071
		c-0.336,0.097-0.673,0.156-1.008,0.181c-0.336,0.024-0.648,0.084-0.936,0.18c-0.768,0.24-1.537,0.588-2.304,1.044
		c-0.769,0.457-1.368,0.972-1.8,1.548c-0.241,0.385-0.493,0.781-0.756,1.188c-0.264,0.408-0.516,0.827-0.756,1.26
		c-0.144,0.385-0.277,0.78-0.396,1.188c-0.121,0.409-0.229,0.805-0.324,1.188c-0.097,0.336-0.144,0.684-0.144,1.044
		s-0.048,0.709-0.144,1.044c-0.048,0.192-0.061,0.372-0.036,0.54c0.023,0.169,0.011,0.324-0.036,0.468v1.152
		c-0.097,0.336-0.121,0.709-0.072,1.116c0.047,0.408,0.072,0.804,0.072,1.188v4.608v6.12c0,0.624-0.025,1.2-0.072,1.728
		c-0.048,0.529-0.192,0.961-0.432,1.296c-0.097,0.145-0.252,0.252-0.468,0.324c-0.216,0.072-0.444,0.133-0.684,0.18h-0.36
		c-0.241,0.049-0.504,0.072-0.792,0.072s-0.552,0-0.792,0H3.677c-0.288-0.047-0.588-0.072-0.9-0.072c-0.312,0-0.637,0-0.972,0
		c-0.241-0.096-0.48-0.18-0.72-0.252c-0.241-0.072-0.408-0.227-0.504-0.468c-0.192-0.239-0.3-0.587-0.324-1.044
		c-0.024-0.456-0.036-0.924-0.036-1.404v-4.896V24.839v-5.327c0-0.479,0-0.947,0-1.404c0-0.456,0.095-0.828,0.288-1.116
		c0.24-0.384,0.6-0.623,1.08-0.72c0.479-0.096,1.055-0.145,1.728-0.145h3.672c0.576,0,1.08,0.036,1.512,0.108
		s0.767,0.301,1.008,0.684c0.144,0.241,0.228,0.576,0.252,1.009c0.023,0.432,0.06,0.853,0.108,1.26
		c0.047,0.408,0.131,0.78,0.252,1.116c0.119,0.336,0.348,0.504,0.684,0.504c0.095-0.096,0.191-0.145,0.288-0.145
		c0.096,0,0.191-0.047,0.288-0.144c0.288-0.24,0.54-0.516,0.756-0.828c0.216-0.312,0.491-0.587,0.828-0.828
		c0.191-0.144,0.36-0.299,0.504-0.468c0.144-0.168,0.312-0.324,0.504-0.468c0.432-0.288,0.875-0.576,1.332-0.864
		c0.456-0.288,0.923-0.552,1.404-0.792c0.479-0.191,0.972-0.36,1.476-0.504c0.504-0.145,1.019-0.288,1.548-0.433
		c0.144-0.047,0.42-0.06,0.828-0.036C20.968,15.324,21.22,15.288,21.317,15.191z"/>
</g>
<g enable-background="new    ">
	<path fill="#CA2027" d="M49.468,15.191c1.775-0.047,3.336,0.144,4.68,0.576c1.343,0.432,2.52,1.032,3.528,1.8
		c0.384,0.288,0.731,0.624,1.044,1.008c0.312,0.385,0.659,0.769,1.044,1.152c0.096,0.097,0.252,0.229,0.468,0.396
		c0.216,0.169,0.443,0.205,0.684,0.108c0.527-0.145,1.031-0.492,1.512-1.044c0.479-0.552,0.936-0.973,1.368-1.26
		c0.671-0.528,1.392-0.973,2.16-1.332c0.767-0.36,1.631-0.708,2.592-1.044c0.384-0.096,0.852-0.181,1.404-0.253
		c0.551-0.071,1.127-0.119,1.728-0.144c0.6-0.023,1.176-0.011,1.728,0.036c0.551,0.048,1.044,0.12,1.476,0.216
		c0.24,0.049,0.456,0.072,0.648,0.072c0.191,0,0.407,0.048,0.648,0.144c0.672,0.192,1.32,0.385,1.944,0.576
		c0.623,0.192,1.199,0.457,1.728,0.792c2.016,1.249,3.528,3.072,4.536,5.472c0.191,0.433,0.335,0.877,0.432,1.332
		c0.096,0.457,0.191,0.9,0.288,1.332c0.047,0.337,0.083,0.648,0.108,0.937c0.023,0.288,0.06,0.576,0.108,0.864v0.72
		c0.047,0.288,0.06,0.624,0.036,1.008c-0.025,0.385-0.036,0.745-0.036,1.08v4.176v14.04c0,0.385,0.011,0.828,0.036,1.332
		c0.023,0.504,0.023,0.984,0,1.44c-0.025,0.456-0.084,0.889-0.18,1.296c-0.097,0.408-0.241,0.684-0.432,0.828
		c-0.288,0.24-0.661,0.372-1.116,0.396c-0.457,0.024-0.948,0.036-1.476,0.036H78.34c-0.673,0-1.272-0.047-1.8-0.144
		c-0.529-0.096-0.889-0.36-1.08-0.792c-0.144-0.336-0.216-0.708-0.216-1.116c0-0.407,0-0.804,0-1.188v-4.032v-9.72v-3.023
		c0-0.24,0.011-0.504,0.036-0.792c0.024-0.288-0.012-0.552-0.108-0.792v-0.576c0-0.288,0-0.576,0-0.864s-0.025-0.576-0.072-0.864
		c-0.048-0.191-0.072-0.396-0.072-0.611c0-0.217-0.025-0.42-0.072-0.612c-0.192-0.72-0.396-1.355-0.612-1.908
		c-0.216-0.551-0.54-1.044-0.972-1.476c-0.673-0.672-1.489-1.152-2.448-1.44c-0.192-0.047-0.36-0.06-0.504-0.036
		c-0.144,0.025-0.313-0.011-0.504-0.107c-0.192-0.048-0.421-0.084-0.684-0.108c-0.265-0.023-0.517-0.011-0.756,0.036
		c-0.288,0.097-0.576,0.144-0.864,0.144s-0.576,0.049-0.864,0.145c-1.393,0.48-2.401,1.2-3.024,2.16
		c-0.816,1.104-1.308,2.483-1.476,4.14c-0.169,1.656-0.252,3.469-0.252,5.437v9.504v5.328c0,0.479,0,0.96,0,1.439
		c0,0.48-0.12,0.864-0.36,1.152c-0.241,0.336-0.588,0.54-1.044,0.611c-0.457,0.072-0.972,0.108-1.548,0.108h-3.888
		c-0.432,0-0.853-0.012-1.26-0.036c-0.409-0.023-0.756-0.083-1.044-0.18c-0.48-0.24-0.756-0.623-0.828-1.152
		c-0.072-0.527-0.108-1.127-0.108-1.8v-6.12V32.688c0-1.392-0.048-2.712-0.144-3.96c-0.097-1.248-0.409-2.279-0.936-3.097
		c-0.385-0.671-0.876-1.175-1.476-1.512c-0.601-0.335-1.332-0.623-2.196-0.864c-0.192-0.047-0.385-0.06-0.576-0.035
		c-0.192,0.024-0.408,0.012-0.648-0.036c-0.529-0.096-1.033-0.048-1.512,0.144c-0.097,0-0.192,0.013-0.288,0.036
		c-0.097,0.024-0.192,0.036-0.288,0.036c-0.769,0.24-1.512,0.647-2.232,1.224c-0.768,0.576-1.356,1.236-1.764,1.98
		c-0.409,0.744-0.696,1.584-0.864,2.52c-0.168,0.937-0.264,1.957-0.288,3.061c-0.024,1.104-0.036,2.304-0.036,3.6v9.72v4.393
		c0,0.432,0,0.864,0,1.296s-0.072,0.816-0.216,1.152c-0.192,0.432-0.552,0.696-1.08,0.792c-0.529,0.097-1.128,0.144-1.8,0.144
		h-3.744c-0.48,0-0.948-0.012-1.404-0.036c-0.457-0.023-0.828-0.132-1.116-0.324c-0.432-0.239-0.66-0.684-0.684-1.332
		c-0.025-0.647-0.036-1.332-0.036-2.052v-8.424V23.543v-4.319c0-0.528,0.011-0.996,0.036-1.404c0.023-0.407,0.131-0.756,0.324-1.044
		c0.24-0.288,0.624-0.479,1.152-0.576h0.432c0.24-0.047,0.492-0.072,0.756-0.072c0.263,0,0.515,0,0.756,0h2.952
		c0.384,0,0.756,0.013,1.116,0.036c0.36,0.025,0.684,0.085,0.972,0.181c0.383,0.144,0.635,0.385,0.756,0.72
		c0.119,0.336,0.227,0.72,0.324,1.151c0.047,0.145,0.06,0.277,0.036,0.396c-0.024,0.12,0.011,0.229,0.108,0.324
		c0.047,0.144,0.108,0.252,0.18,0.324c0.072,0.071,0.155,0.156,0.252,0.252c0.576,0.048,1.055-0.132,1.44-0.54
		c0.384-0.407,0.744-0.731,1.08-0.973c0.672-0.479,1.355-0.911,2.052-1.296c0.695-0.384,1.451-0.695,2.268-0.936
		c0.432-0.145,0.864-0.24,1.296-0.288c0.432-0.048,0.888-0.119,1.368-0.216c0.144-0.048,0.36-0.06,0.648-0.036
		C49.18,15.252,49.371,15.239,49.468,15.191z"/>
	<path fill="#CA2027" d="M130.611,33.191c0.096,0.288,0.144,0.696,0.144,1.224c0,0.529-0.048,0.937-0.144,1.225v0.72
		c-0.097,0.385-0.133,0.769-0.108,1.152c0.023,0.385-0.013,0.768-0.108,1.151c-0.097,0.337-0.169,0.648-0.216,0.937
		c-0.048,0.288-0.097,0.601-0.144,0.936c-0.192,0.529-0.36,1.069-0.504,1.62c-0.144,0.553-0.336,1.068-0.576,1.548
		c-1.008,2.304-2.329,4.176-3.96,5.616c-1.632,1.44-3.6,2.641-5.904,3.6c-0.576,0.241-1.165,0.42-1.764,0.54
		c-0.601,0.119-1.212,0.252-1.836,0.396c-0.241,0.096-0.504,0.144-0.792,0.144s-0.552,0.023-0.792,0.072
		c-0.144,0-0.3,0.012-0.468,0.036c-0.169,0.023-0.324,0.036-0.468,0.036c-0.241,0.047-0.625,0.083-1.152,0.107
		c-0.529,0.024-0.936-0.012-1.224-0.107h-0.72c-0.241-0.049-0.493-0.061-0.756-0.036c-0.264,0.023-0.516-0.013-0.756-0.108
		c-0.192-0.048-0.373-0.071-0.54-0.071c-0.169,0-0.373-0.025-0.612-0.072c-0.48-0.145-0.961-0.265-1.44-0.36
		c-0.48-0.097-0.936-0.239-1.368-0.432c-0.576-0.191-1.116-0.384-1.62-0.576c-0.504-0.191-1.021-0.432-1.548-0.72
		c-1.681-1.008-3.121-2.184-4.32-3.528c-1.201-1.343-2.208-2.952-3.024-4.824c-0.241-0.432-0.42-0.888-0.54-1.368
		c-0.12-0.479-0.252-0.982-0.396-1.512c-0.097-0.239-0.144-0.455-0.144-0.647c0-0.191-0.049-0.407-0.144-0.648
		c-0.097-0.384-0.144-0.779-0.144-1.188c0-0.407-0.048-0.804-0.144-1.188c-0.048-0.239-0.072-0.456-0.072-0.648
		c0-0.19,0-0.407,0-0.647c-0.097-0.288-0.133-0.695-0.108-1.224c0.024-0.528,0.083-0.937,0.18-1.225v-0.504
		c0.047-0.239,0.06-0.491,0.036-0.756c-0.025-0.264,0.011-0.516,0.108-0.756c0.047-0.24,0.072-0.468,0.072-0.685
		c0-0.216,0.047-0.443,0.144-0.684c0.191-0.623,0.36-1.235,0.504-1.836c0.144-0.6,0.335-1.188,0.576-1.764
		c0.864-1.968,1.896-3.611,3.096-4.933c1.199-1.319,2.664-2.531,4.392-3.636c0.479-0.239,0.983-0.456,1.512-0.648
		c0.527-0.19,1.055-0.407,1.584-0.647c0.623-0.24,1.271-0.407,1.944-0.504c0.672-0.096,1.368-0.24,2.088-0.433
		c0.384-0.047,0.744-0.071,1.08-0.071c0.335,0,0.672-0.024,1.008-0.072c2.783-0.047,5.195,0.24,7.236,0.864
		c2.04,0.624,3.852,1.488,5.436,2.592c0.528,0.385,1.067,0.805,1.62,1.26c0.551,0.457,1.019,0.948,1.404,1.476
		c0.384,0.48,0.731,0.961,1.044,1.44c0.312,0.48,0.636,0.984,0.972,1.512c0.335,0.529,0.6,1.093,0.792,1.692
		c0.191,0.601,0.407,1.236,0.648,1.908c0.144,0.385,0.263,0.792,0.36,1.224c0.096,0.432,0.191,0.864,0.288,1.296
		c0.047,0.192,0.072,0.385,0.072,0.576c0,0.192,0.023,0.385,0.072,0.576c0.096,0.24,0.119,0.504,0.072,0.792
		C130.491,32.688,130.515,32.952,130.611,33.191z M120.531,35.783c0.047-0.239,0.072-0.587,0.072-1.044
		c0-0.456-0.025-0.803-0.072-1.044v-0.576c-0.097-0.239-0.144-0.504-0.144-0.792s-0.025-0.551-0.072-0.792
		c0-0.191-0.025-0.335-0.072-0.432c-0.097-0.384-0.18-0.78-0.252-1.188c-0.072-0.407-0.18-0.803-0.324-1.188
		c-0.529-1.248-1.152-2.315-1.872-3.204c-0.72-0.888-1.681-1.596-2.88-2.124c-0.288-0.096-0.576-0.18-0.864-0.252
		s-0.601-0.155-0.936-0.252c-0.385-0.096-0.792-0.132-1.224-0.108c-0.432,0.025-0.864,0.036-1.296,0.036
		c-0.144,0.097-0.312,0.133-0.504,0.108c-0.192-0.024-0.36-0.012-0.504,0.036c-0.336,0.097-0.661,0.18-0.972,0.252
		c-0.312,0.071-0.588,0.18-0.828,0.323c-1.2,0.529-2.172,1.285-2.916,2.269c-0.745,0.984-1.332,2.124-1.764,3.42
		c-0.144,0.48-0.252,0.984-0.324,1.512c-0.072,0.529-0.156,1.057-0.252,1.584c-0.048,0.241-0.072,0.48-0.072,0.72
		c0,0.241,0,0.48,0,0.721c-0.097,0.336-0.133,0.84-0.108,1.512c0.024,0.673,0.083,1.177,0.18,1.512v0.648
		c0.096,0.385,0.167,0.756,0.216,1.116c0.047,0.359,0.12,0.732,0.216,1.115c0.479,1.44,0.996,2.604,1.548,3.492
		c0.551,0.889,1.428,1.692,2.628,2.412c0.335,0.241,0.708,0.432,1.116,0.576c0.407,0.144,0.828,0.265,1.26,0.36
		c0.191,0.048,0.36,0.061,0.504,0.035c0.144-0.023,0.312-0.011,0.504,0.036c0.191,0.049,0.396,0.085,0.612,0.108
		c0.216,0.024,0.419,0.013,0.612-0.036h0.576c0.384-0.096,0.767-0.168,1.152-0.216c0.384-0.048,0.744-0.145,1.08-0.288
		c1.248-0.479,2.256-1.127,3.024-1.944c0.768-0.815,1.416-1.823,1.944-3.023c0.191-0.479,0.335-0.96,0.432-1.44
		c0.096-0.479,0.216-0.983,0.36-1.512c0.047-0.191,0.072-0.371,0.072-0.54c0-0.168,0.024-0.348,0.072-0.54c0-0.239,0-0.468,0-0.684
		C120.459,36.251,120.483,36.024,120.531,35.783z"/>
	<path fill="#CA2027" d="M142.347,5.039h4.824c0.72,0,1.356,0.036,1.908,0.108c0.551,0.072,0.947,0.372,1.188,0.899
		c0.096,0.241,0.144,0.529,0.144,0.864c0,0.337,0,0.673,0,1.008v3.24c0,0.241-0.013,0.517-0.036,0.828
		c-0.025,0.312-0.012,0.588,0.036,0.828v0.792c0,0.385,0.023,0.732,0.072,1.044c0.047,0.312,0.167,0.588,0.36,0.828
		c0.335,0.432,0.947,0.66,1.836,0.684c0.887,0.025,1.739,0.036,2.556,0.036c0.288,0,0.576,0,0.864,0s0.551,0.049,0.792,0.145
		c0.527,0.24,0.828,0.672,0.9,1.296c0.072,0.624,0.108,1.32,0.108,2.088c0,0.336,0.011,0.673,0.036,1.008
		c0.023,0.336-0.012,0.624-0.108,0.864c-0.241,0.768-0.745,1.177-1.512,1.224c-0.769,0.049-1.632,0.072-2.592,0.072
		c-0.192,0-0.396-0.012-0.612-0.036c-0.216-0.023-0.396-0.012-0.54,0.036c-0.192,0.048-0.36,0.061-0.504,0.036
		s-0.288,0.012-0.432,0.107c-0.385,0.097-0.66,0.301-0.828,0.612c-0.169,0.312-0.3,0.684-0.396,1.116
		c-0.048,0.24-0.048,0.504,0,0.792c0.047,0.288,0.047,0.552,0,0.792v4.464v8.424c0,1.2,0.036,2.244,0.108,3.132
		c0.072,0.889,0.371,1.669,0.9,2.34c0.24,0.288,0.563,0.493,0.972,0.612c0.407,0.12,0.828,0.229,1.26,0.324
		c0.144,0.048,0.299,0.061,0.468,0.036c0.167-0.023,0.299-0.012,0.396,0.036h0.792c0.527,0,0.983,0.024,1.368,0.071
		c0.384,0.049,0.695,0.241,0.936,0.576c0.191,0.288,0.288,0.66,0.288,1.116c0,0.457,0,0.925,0,1.404
		c0,1.008-0.012,1.933-0.036,2.771c-0.024,0.841-0.42,1.404-1.188,1.692c-0.241,0.096-0.457,0.132-0.648,0.107
		c-0.192-0.024-0.408,0.012-0.648,0.108h-0.72c-0.097,0-0.241-0.013-0.432-0.036c-0.192-0.024-0.36-0.013-0.504,0.036
		c-0.241,0.047-0.493,0.06-0.756,0.036c-0.264-0.025-0.516-0.036-0.756-0.036c-0.241,0-0.48,0.011-0.72,0.036
		c-0.241,0.023-0.457,0.011-0.648-0.036h-0.792c-0.241-0.049-0.504-0.072-0.792-0.072c-0.288,0-0.552-0.024-0.792-0.072
		c-0.336-0.048-0.648-0.097-0.936-0.144c-0.288-0.047-0.576-0.096-0.864-0.144c-0.529-0.145-1.033-0.312-1.512-0.505
		c-0.48-0.19-0.936-0.407-1.368-0.647c-0.144-0.096-0.288-0.204-0.432-0.324c-0.144-0.119-0.312-0.252-0.504-0.396
		c-0.097-0.096-0.216-0.204-0.36-0.324c-0.144-0.119-0.265-0.228-0.36-0.324c-0.673-0.911-1.177-1.919-1.512-3.024
		c-0.097-0.19-0.133-0.371-0.108-0.539c0.023-0.168,0.011-0.372-0.036-0.612c-0.048-0.096-0.072-0.216-0.072-0.36
		c0-0.144-0.024-0.263-0.072-0.359v-0.721c-0.048-0.191-0.061-0.407-0.036-0.647c0.024-0.24,0.036-0.479,0.036-0.721v-2.735V30.167
		v-3.815c0-0.336,0.011-0.672,0.036-1.008c0.023-0.336-0.013-0.648-0.108-0.937c-0.192-0.672-0.528-1.104-1.008-1.296
		c-0.529-0.239-1.2-0.312-2.016-0.216c-0.816,0.097-1.512,0.024-2.088-0.216c-0.385-0.145-0.625-0.36-0.72-0.648
		c-0.097-0.288-0.192-0.648-0.288-1.08v-1.512c0-0.864,0.047-1.56,0.144-2.088c0.095-0.528,0.504-0.888,1.224-1.08
		c0.191-0.096,0.384-0.132,0.576-0.108c0.191,0.025,0.407,0.036,0.648,0.036c0.72,0,1.392-0.036,2.016-0.108
		c0.623-0.071,1.055-0.347,1.296-0.827c0.144-0.336,0.227-0.721,0.252-1.152c0.024-0.432,0.036-0.864,0.036-1.296V8.352
		c0-0.384,0-0.792,0-1.225c0-0.432,0.047-0.792,0.144-1.08c0.24-0.479,0.6-0.792,1.08-0.936c0.095-0.047,0.227-0.06,0.396-0.036
		C142.118,5.1,142.25,5.088,142.347,5.039z"/>
	<path fill="#CA2027" d="M172.73,2.447c0.335,0.385,0.504,0.961,0.504,1.729s0,1.512,0,2.231c0,0.624,0,1.272,0,1.944
		c0,0.673-0.169,1.128-0.504,1.368c-0.288,0.24-0.661,0.385-1.116,0.432c-0.457,0.048-0.948,0.072-1.476,0.072h-4.032
		c-0.529,0-0.997-0.024-1.404-0.072c-0.408-0.047-0.756-0.191-1.044-0.432c-0.192-0.145-0.324-0.42-0.396-0.828
		c-0.072-0.407-0.12-0.864-0.144-1.368c-0.025-0.504-0.025-1.02,0-1.548c0.024-0.528,0.036-0.983,0.036-1.368
		c0-0.384,0.011-0.731,0.036-1.044c0.023-0.312,0.108-0.588,0.252-0.828c0.096-0.191,0.227-0.335,0.396-0.432
		c0.167-0.096,0.348-0.191,0.54-0.288c0.095,0,0.216-0.012,0.36-0.036c0.144-0.023,0.263-0.036,0.36-0.036h5.256
		c0.479,0,0.936,0.024,1.368,0.072S172.489,2.208,172.73,2.447z M173.234,49.319c0,0.961-0.025,1.776-0.072,2.448
		c-0.048,0.673-0.48,1.128-1.296,1.368c-0.288,0.097-0.601,0.132-0.936,0.107c-0.336-0.023-0.696-0.036-1.08-0.036h-4.032
		c-0.432,0-0.853-0.023-1.26-0.071c-0.408-0.048-0.708-0.191-0.9-0.433c-0.288-0.335-0.444-0.756-0.468-1.26
		c-0.025-0.504-0.036-1.044-0.036-1.62V19.439c0-0.479,0-0.96,0-1.44c0-0.479,0.096-0.863,0.288-1.151
		c0.288-0.336,0.695-0.552,1.224-0.648c0.096-0.047,0.228-0.06,0.396-0.036c0.168,0.025,0.299,0.013,0.396-0.036h3.6
		c0.288,0,0.612-0.011,0.972-0.036c0.36-0.023,0.659-0.011,0.9,0.036h0.576c0.288,0.097,0.551,0.169,0.792,0.217
		c0.24,0.048,0.432,0.192,0.576,0.432c0.191,0.24,0.299,0.576,0.324,1.008c0.023,0.432,0.036,0.889,0.036,1.368V49.319z"/>
	<path fill="#CA2027" d="M195.481,1.943c0.432,0,0.924,0,1.476,0c0.551,0,1.104,0.024,1.656,0.072
		c0.551,0.048,1.044,0.133,1.476,0.252c0.432,0.12,0.72,0.3,0.864,0.54c0.288,0.385,0.432,0.925,0.432,1.62c0,0.696,0,1.356,0,1.979
		c0,0.48-0.012,0.961-0.036,1.44c-0.025,0.48-0.133,0.84-0.324,1.08c-0.192,0.287-0.432,0.468-0.72,0.54
		c-0.288,0.071-0.612,0.107-0.972,0.107s-0.72-0.011-1.08-0.036c-0.36-0.023-0.708-0.011-1.044,0.036
		c-0.864,0.192-1.537,0.421-2.016,0.685c-0.48,0.264-0.864,0.804-1.152,1.619c-0.097,0.145-0.133,0.277-0.108,0.396
		c0.023,0.12,0.011,0.252-0.036,0.396c-0.048,0.192-0.097,0.48-0.144,0.864c-0.048,0.385-0.048,0.696,0,0.937
		c0.096,0.336,0.216,0.624,0.36,0.863c0.144,0.241,0.36,0.433,0.648,0.576c0.479,0.241,1.056,0.312,1.728,0.216
		c0.672-0.096,1.296-0.096,1.872,0c0.24,0.049,0.443,0.062,0.612,0.036c0.167-0.023,0.348-0.011,0.54,0.036
		c0.432,0.192,0.743,0.408,0.936,0.648c0.096,0.144,0.168,0.372,0.216,0.684c0.047,0.312,0.096,0.648,0.144,1.008
		c0.047,0.36,0.06,0.721,0.036,1.08c-0.024,0.36-0.061,0.637-0.108,0.828c-0.048,0.192-0.048,0.372,0,0.54
		c0.047,0.169,0.024,0.349-0.072,0.54c-0.097,0.576-0.385,0.936-0.864,1.08c-0.385,0.192-0.84,0.276-1.368,0.252
		c-0.529-0.023-1.057-0.036-1.584-0.036c-0.144,0-0.313,0-0.504,0c-0.192,0-0.36,0.024-0.504,0.072h-0.576
		c-0.817,0.192-1.321,0.72-1.512,1.584c-0.097,0.288-0.12,0.624-0.072,1.008c0.047,0.385,0.072,0.769,0.072,1.152v4.392v14.04v3.384
		c0,0.288,0.011,0.589,0.036,0.9c0.023,0.312-0.013,0.588-0.108,0.828v0.792c0,0.769-0.121,1.32-0.36,1.655
		c-0.097,0.145-0.264,0.252-0.504,0.324c-0.241,0.072-0.48,0.156-0.72,0.252h-0.36c-0.241,0.049-0.504,0.061-0.792,0.036
		c-0.288-0.023-0.552-0.036-0.792-0.036h-3.168c-0.336,0-0.684,0.013-1.044,0.036c-0.36,0.024-0.66-0.011-0.9-0.107
		c-0.576-0.145-0.961-0.384-1.152-0.721c-0.144-0.239-0.229-0.551-0.252-0.936c-0.024-0.384-0.036-0.768-0.036-1.152v-3.744v-20.16
		c0-0.815-0.048-1.522-0.144-2.124c-0.097-0.6-0.432-1.019-1.008-1.26c-0.528-0.239-1.177-0.299-1.944-0.18
		c-0.768,0.12-1.417,0.061-1.944-0.18c-0.529-0.24-0.864-0.648-1.008-1.225c-0.095-0.239-0.131-0.527-0.108-0.864
		c0.025-0.335,0.036-0.671,0.036-1.008c0-0.863,0.047-1.584,0.144-2.16c0.096-0.575,0.504-0.982,1.224-1.224
		c0.383-0.096,0.792-0.144,1.224-0.144c0.432,0,0.852,0,1.26,0c0.407,0,0.78-0.036,1.116-0.108c0.335-0.072,0.6-0.252,0.792-0.54
		c0.335-0.479,0.468-1.091,0.396-1.836c-0.072-0.743-0.036-1.451,0.108-2.124c0.047-0.191,0.083-0.384,0.108-0.576
		c0.023-0.191,0.06-0.407,0.108-0.647c0.191-0.672,0.384-1.284,0.576-1.836c0.191-0.552,0.456-1.068,0.792-1.549
		c0.671-1.151,1.559-2.075,2.664-2.771c1.104-0.695,2.351-1.235,3.744-1.62c0.384-0.144,0.792-0.228,1.224-0.252
		c0.432-0.023,0.864-0.083,1.296-0.18c0.144-0.048,0.36-0.048,0.648,0C195.193,2.063,195.385,2.04,195.481,1.943z"/>
	<path fill="#CA2027" d="M205.273,16.127h5.76c0.671,0,1.307,0.025,1.908,0.072c0.6,0.049,1.091,0.216,1.476,0.504
		c0.335,0.241,0.636,0.564,0.9,0.973c0.263,0.408,0.516,0.804,0.756,1.188c0.383,0.624,0.792,1.236,1.224,1.836
		c0.432,0.601,0.864,1.213,1.296,1.836c0.239,0.385,0.515,0.816,0.828,1.296c0.312,0.48,0.708,0.792,1.188,0.937
		c0.191,0.048,0.372,0.036,0.54-0.036c0.168-0.072,0.299-0.155,0.396-0.252c0.335-0.24,0.6-0.527,0.792-0.864
		c0.191-0.335,0.407-0.672,0.648-1.008c0.384-0.623,0.792-1.235,1.224-1.836c0.432-0.6,0.864-1.212,1.296-1.836
		c0.384-0.672,0.756-1.248,1.116-1.729c0.36-0.479,0.972-0.815,1.836-1.008c0.335-0.096,0.695-0.132,1.08-0.108
		c0.384,0.025,0.767,0.036,1.152,0.036h4.464c0.479,0,0.947,0.036,1.404,0.108c0.456,0.072,0.731,0.301,0.828,0.684
		c0.095,0.241,0.083,0.469-0.036,0.685c-0.121,0.216-0.229,0.396-0.324,0.54c-0.241,0.48-0.529,0.925-0.864,1.332
		c-0.336,0.408-0.648,0.853-0.936,1.332c-1.105,1.536-2.185,3.072-3.24,4.607c-1.056,1.537-2.136,3.072-3.24,4.608
		c-0.288,0.385-0.576,0.769-0.864,1.152c-0.288,0.384-0.552,0.816-0.792,1.296c-0.097,0.144-0.18,0.336-0.252,0.575
		c-0.072,0.241-0.084,0.48-0.036,0.721c0.144,0.528,0.347,0.972,0.612,1.332c0.263,0.359,0.515,0.732,0.756,1.115
		c0.288,0.385,0.576,0.781,0.864,1.188c0.288,0.408,0.551,0.805,0.792,1.188c1.055,1.489,2.088,2.978,3.096,4.465
		c1.008,1.488,2.04,3,3.096,4.535c0.384,0.576,0.792,1.152,1.224,1.729c0.432,0.576,0.839,1.177,1.224,1.8
		c0.096,0.145,0.216,0.349,0.36,0.612c0.144,0.265,0.144,0.54,0,0.828c-0.097,0.336-0.36,0.528-0.792,0.576
		c-0.432,0.048-0.889,0.071-1.368,0.071h-6.624c-0.241-0.047-0.48-0.083-0.72-0.107c-0.241-0.024-0.48-0.084-0.72-0.181
		c-0.529-0.383-0.961-0.863-1.296-1.439c-0.336-0.576-0.696-1.128-1.08-1.656c-0.529-0.72-1.033-1.451-1.512-2.196
		c-0.48-0.743-0.96-1.476-1.44-2.195c-0.288-0.433-0.637-0.973-1.044-1.62c-0.408-0.648-0.876-1.044-1.404-1.188
		c-0.336-0.096-0.625-0.036-0.864,0.181c-0.241,0.216-0.408,0.42-0.504,0.611c-0.385,0.529-0.756,1.069-1.116,1.62
		c-0.36,0.553-0.732,1.116-1.116,1.692l-2.808,4.104c-0.241,0.385-0.493,0.769-0.756,1.152c-0.265,0.385-0.612,0.696-1.044,0.936
		c-0.529,0.241-1.285,0.349-2.268,0.324c-0.984-0.023-1.861-0.036-2.628-0.036h-2.376c-0.192,0-0.396,0.013-0.612,0.036
		c-0.216,0.024-0.396,0.013-0.54-0.036c-0.192-0.047-0.372-0.06-0.54-0.036c-0.168,0.025-0.324-0.011-0.468-0.107
		c-0.144-0.096-0.252-0.181-0.324-0.252c-0.072-0.072-0.156-0.155-0.252-0.252c-0.048-0.479,0.024-0.876,0.216-1.188
		c0.191-0.312,0.383-0.611,0.576-0.899c0.384-0.528,0.756-1.056,1.116-1.584s0.731-1.056,1.116-1.584
		c0.96-1.392,1.919-2.809,2.88-4.248c0.959-1.44,1.919-2.88,2.88-4.32c0.335-0.432,0.648-0.864,0.936-1.296
		c0.288-0.433,0.576-0.864,0.864-1.296c0.24-0.336,0.468-0.672,0.684-1.008c0.216-0.336,0.371-0.744,0.468-1.225
		c0.095-0.239,0.095-0.455,0-0.647c-0.097-0.191-0.169-0.336-0.216-0.433c-0.241-0.527-0.516-0.995-0.828-1.403
		c-0.313-0.407-0.612-0.828-0.9-1.261c-1.104-1.68-2.221-3.3-3.348-4.859c-1.128-1.56-2.245-3.18-3.348-4.86
		c-0.241-0.384-0.504-0.768-0.792-1.152c-0.288-0.383-0.552-0.792-0.792-1.224c-0.097-0.144-0.205-0.312-0.324-0.504
		c-0.12-0.191-0.133-0.407-0.036-0.648c0.095-0.239,0.216-0.396,0.36-0.468s0.335-0.155,0.576-0.252
		C204.985,16.199,205.176,16.176,205.273,16.127z"/>
</g>
<text transform="matrix(1 0 0 1 -1 83)" font-family="'HelveticaNeue'" font-size="16">Discovery of biological sequence motifs in R</text>
</svg>
